<svg width="98" height="56" viewBox="0 0 98 56" fill="none" xmlns="http://www.w3.org/2000/svg">
    <path d="M8.51074 6.04395V9.6875C8.3877 9.86979 8.19173 10.0749 7.92285 10.3027C7.65397 10.526 7.28255 10.722 6.80859 10.8906C6.33919 11.0547 5.73307 11.1367 4.99023 11.1367C4.38411 11.1367 3.82585 11.0319 3.31543 10.8223C2.80957 10.6081 2.36979 10.2982 1.99609 9.89258C1.62695 9.48242 1.33984 8.98568 1.13477 8.40234C0.934245 7.81445 0.833984 7.14909 0.833984 6.40625V5.63379C0.833984 4.89095 0.920573 4.22786 1.09375 3.64453C1.27148 3.0612 1.53125 2.56673 1.87305 2.16113C2.21484 1.75098 2.63411 1.44108 3.13086 1.23145C3.6276 1.01725 4.19727 0.910156 4.83984 0.910156C5.60091 0.910156 6.23665 1.04232 6.74707 1.30664C7.26204 1.56641 7.66309 1.92643 7.9502 2.38672C8.24186 2.84701 8.42871 3.37109 8.51074 3.95898H7.19141C7.13216 3.59896 7.01367 3.27083 6.83594 2.97461C6.66276 2.67839 6.41439 2.44141 6.09082 2.26367C5.76725 2.08138 5.35026 1.99023 4.83984 1.99023C4.37956 1.99023 3.98079 2.07454 3.64355 2.24316C3.30632 2.41178 3.02832 2.65332 2.80957 2.96777C2.59082 3.28223 2.42676 3.66276 2.31738 4.10938C2.21257 4.55599 2.16016 5.05957 2.16016 5.62012V6.40625C2.16016 6.98047 2.22624 7.49316 2.3584 7.94434C2.49512 8.39551 2.6888 8.7806 2.93945 9.09961C3.1901 9.41406 3.48861 9.65332 3.83496 9.81738C4.18587 9.98145 4.57324 10.0635 4.99707 10.0635C5.46647 10.0635 5.84701 10.0247 6.13867 9.94727C6.43034 9.86523 6.6582 9.76953 6.82227 9.66016C6.98633 9.54622 7.11165 9.43913 7.19824 9.33887V7.11035H4.89453V6.04395H8.51074ZM13.5762 11.1367C13.0612 11.1367 12.5941 11.0501 12.1748 10.877C11.7601 10.6992 11.4023 10.4508 11.1016 10.1318C10.8053 9.81283 10.5775 9.43457 10.418 8.99707C10.2585 8.55957 10.1787 8.08105 10.1787 7.56152V7.27441C10.1787 6.67285 10.2676 6.13737 10.4453 5.66797C10.623 5.19401 10.8646 4.79297 11.1699 4.46484C11.4753 4.13672 11.8216 3.88835 12.209 3.71973C12.5964 3.55111 12.9974 3.4668 13.4121 3.4668C13.9408 3.4668 14.3965 3.55794 14.7793 3.74023C15.1667 3.92253 15.4834 4.17773 15.7295 4.50586C15.9756 4.82943 16.1579 5.21224 16.2764 5.6543C16.3949 6.0918 16.4541 6.57031 16.4541 7.08984V7.65723H10.9307V6.625H15.1895V6.5293C15.1712 6.20117 15.1029 5.88216 14.9844 5.57227C14.8704 5.26237 14.6882 5.00716 14.4375 4.80664C14.1868 4.60612 13.8451 4.50586 13.4121 4.50586C13.125 4.50586 12.8607 4.56738 12.6191 4.69043C12.3776 4.80892 12.1702 4.98665 11.9971 5.22363C11.8239 5.46061 11.6895 5.75 11.5938 6.0918C11.498 6.43359 11.4502 6.8278 11.4502 7.27441V7.56152C11.4502 7.91243 11.498 8.24284 11.5938 8.55273C11.694 8.85807 11.8376 9.12695 12.0244 9.35938C12.2158 9.5918 12.446 9.77409 12.7148 9.90625C12.9883 10.0384 13.2982 10.1045 13.6445 10.1045C14.0911 10.1045 14.4694 10.0133 14.7793 9.83105C15.0892 9.64876 15.3604 9.40495 15.5928 9.09961L16.3584 9.70801C16.1989 9.94954 15.9961 10.1797 15.75 10.3984C15.5039 10.6172 15.2008 10.7949 14.8408 10.9316C14.4854 11.0684 14.0638 11.1367 13.5762 11.1367ZM19.1953 4.76562V11H17.9307V3.60352H19.1611L19.1953 4.76562ZM21.5059 3.5625L21.499 4.73828C21.3942 4.71549 21.2939 4.70182 21.1982 4.69727C21.1071 4.68815 21.0023 4.68359 20.8838 4.68359C20.5921 4.68359 20.3346 4.72917 20.1113 4.82031C19.888 4.91146 19.6989 5.03906 19.5439 5.20312C19.389 5.36719 19.266 5.56315 19.1748 5.79102C19.0882 6.01432 19.0312 6.26042 19.0039 6.5293L18.6484 6.73438C18.6484 6.28776 18.6917 5.86849 18.7783 5.47656C18.8695 5.08464 19.0085 4.73828 19.1953 4.4375C19.3822 4.13216 19.6191 3.89518 19.9062 3.72656C20.1979 3.55339 20.5443 3.4668 20.9453 3.4668C21.0365 3.4668 21.1413 3.47819 21.2598 3.50098C21.3783 3.51921 21.4603 3.53971 21.5059 3.5625ZM23.9326 5.07324V11H22.6611V3.60352H23.8643L23.9326 5.07324ZM23.6729 7.02148L23.085 7.00098C23.0895 6.49512 23.1556 6.02799 23.2832 5.59961C23.4108 5.16667 23.5999 4.79069 23.8506 4.47168C24.1012 4.15267 24.4134 3.90658 24.7871 3.7334C25.1608 3.55566 25.5938 3.4668 26.0859 3.4668C26.4323 3.4668 26.7513 3.51693 27.043 3.61719C27.3346 3.71289 27.5876 3.86556 27.8018 4.0752C28.016 4.28483 28.1823 4.55371 28.3008 4.88184C28.4193 5.20996 28.4785 5.60645 28.4785 6.07129V11H27.2139V6.13281C27.2139 5.74544 27.1478 5.43555 27.0156 5.20312C26.888 4.9707 26.7057 4.80208 26.4688 4.69727C26.2318 4.58789 25.9538 4.5332 25.6348 4.5332C25.2611 4.5332 24.9489 4.59928 24.6982 4.73145C24.4476 4.86361 24.2471 5.0459 24.0967 5.27832C23.9463 5.51074 23.8369 5.77734 23.7686 6.07812C23.7048 6.37435 23.6729 6.6888 23.6729 7.02148ZM28.4648 6.32422L27.6172 6.58398C27.6217 6.17839 27.6878 5.78874 27.8154 5.41504C27.9476 5.04134 28.1367 4.70866 28.3828 4.41699C28.6335 4.12533 28.9411 3.89518 29.3057 3.72656C29.6702 3.55339 30.0872 3.4668 30.5566 3.4668C30.9531 3.4668 31.304 3.51921 31.6094 3.62402C31.9193 3.72884 32.179 3.89062 32.3887 4.10938C32.6029 4.32357 32.7646 4.59928 32.874 4.93652C32.9834 5.27376 33.0381 5.6748 33.0381 6.13965V11H31.7666V6.12598C31.7666 5.71126 31.7005 5.38997 31.5684 5.16211C31.4408 4.92969 31.2585 4.7679 31.0215 4.67676C30.7891 4.58105 30.5111 4.5332 30.1875 4.5332C29.9095 4.5332 29.6634 4.58105 29.4492 4.67676C29.235 4.77246 29.055 4.90462 28.9092 5.07324C28.7633 5.2373 28.6517 5.42643 28.5742 5.64062C28.5013 5.85482 28.4648 6.08268 28.4648 6.32422ZM39.3135 9.73535V5.92773C39.3135 5.63607 39.2542 5.38314 39.1357 5.16895C39.0218 4.9502 38.8486 4.78158 38.6162 4.66309C38.3838 4.5446 38.0967 4.48535 37.7549 4.48535C37.4359 4.48535 37.1556 4.54004 36.9141 4.64941C36.6771 4.75879 36.4902 4.90234 36.3535 5.08008C36.2214 5.25781 36.1553 5.44922 36.1553 5.6543H34.8906C34.8906 5.38997 34.959 5.12793 35.0957 4.86816C35.2324 4.6084 35.4284 4.3737 35.6836 4.16406C35.9434 3.94987 36.2533 3.78125 36.6133 3.6582C36.9779 3.5306 37.3835 3.4668 37.8301 3.4668C38.3678 3.4668 38.8418 3.55794 39.252 3.74023C39.6667 3.92253 39.9902 4.19824 40.2227 4.56738C40.4596 4.93197 40.5781 5.38997 40.5781 5.94141V9.38672C40.5781 9.63281 40.5986 9.89486 40.6396 10.1729C40.6852 10.4508 40.7513 10.6901 40.8379 10.8906V11H39.5186C39.4548 10.8542 39.4046 10.6605 39.3682 10.4189C39.3317 10.1729 39.3135 9.94499 39.3135 9.73535ZM39.5322 6.51562L39.5459 7.4043H38.2676C37.9076 7.4043 37.5863 7.43392 37.3037 7.49316C37.0212 7.54785 36.7842 7.63216 36.5928 7.74609C36.4014 7.86003 36.2555 8.00358 36.1553 8.17676C36.055 8.34538 36.0049 8.54362 36.0049 8.77148C36.0049 9.00391 36.0573 9.21582 36.1621 9.40723C36.2669 9.59863 36.4242 9.7513 36.6338 9.86523C36.848 9.97461 37.11 10.0293 37.4199 10.0293C37.8073 10.0293 38.1491 9.94727 38.4453 9.7832C38.7415 9.61914 38.9762 9.41862 39.1494 9.18164C39.3271 8.94466 39.4229 8.71452 39.4365 8.49121L39.9766 9.09961C39.9447 9.29102 39.8581 9.50293 39.7168 9.73535C39.5755 9.96777 39.3864 10.1911 39.1494 10.4053C38.917 10.6149 38.639 10.7904 38.3154 10.9316C37.9964 11.0684 37.6364 11.1367 37.2354 11.1367C36.734 11.1367 36.2943 11.0387 35.916 10.8428C35.5423 10.6468 35.2507 10.3848 35.041 10.0566C34.8359 9.72396 34.7334 9.35254 34.7334 8.94238C34.7334 8.5459 34.8109 8.19727 34.9658 7.89648C35.1208 7.59115 35.3441 7.33822 35.6357 7.1377C35.9274 6.93262 36.2783 6.77767 36.6885 6.67285C37.0986 6.56803 37.5566 6.51562 38.0625 6.51562H39.5322ZM43.832 5.18262V11H42.5674V3.60352H43.7637L43.832 5.18262ZM43.5312 7.02148L43.0049 7.00098C43.0094 6.49512 43.0846 6.02799 43.2305 5.59961C43.3763 5.16667 43.5814 4.79069 43.8457 4.47168C44.11 4.15267 44.4245 3.90658 44.7891 3.7334C45.1582 3.55566 45.5661 3.4668 46.0127 3.4668C46.3773 3.4668 46.7054 3.51693 46.9971 3.61719C47.2887 3.71289 47.5371 3.86784 47.7422 4.08203C47.9518 4.29622 48.1113 4.57422 48.2207 4.91602C48.3301 5.25326 48.3848 5.66569 48.3848 6.15332V11H47.1133V6.13965C47.1133 5.75228 47.0563 5.44238 46.9424 5.20996C46.8285 4.97298 46.6621 4.80208 46.4434 4.69727C46.2246 4.58789 45.9557 4.5332 45.6367 4.5332C45.3223 4.5332 45.0352 4.59928 44.7754 4.73145C44.5202 4.86361 44.2992 5.0459 44.1123 5.27832C43.93 5.51074 43.7865 5.77734 43.6816 6.07812C43.5814 6.37435 43.5312 6.6888 43.5312 7.02148ZM52.3838 10.2344L54.4414 3.60352H55.7949L52.8281 12.1416C52.7598 12.3239 52.6686 12.5199 52.5547 12.7295C52.4453 12.9437 52.304 13.1465 52.1309 13.3379C51.9577 13.5293 51.748 13.6842 51.502 13.8027C51.2604 13.9258 50.971 13.9873 50.6338 13.9873C50.5335 13.9873 50.4059 13.9736 50.251 13.9463C50.096 13.9189 49.9867 13.8962 49.9229 13.8779L49.916 12.8525C49.9525 12.8571 50.0094 12.8617 50.0869 12.8662C50.1689 12.8753 50.2259 12.8799 50.2578 12.8799C50.5449 12.8799 50.7887 12.8411 50.9893 12.7637C51.1898 12.6908 51.3584 12.5654 51.4951 12.3877C51.6364 12.2145 51.7572 11.9753 51.8574 11.6699L52.3838 10.2344ZM50.873 3.60352L52.7939 9.3457L53.1221 10.6787L52.2129 11.1436L49.4922 3.60352H50.873ZM7.0752 27.2305V28.748C7.0752 29.5638 7.00228 30.252 6.85645 30.8125C6.71061 31.373 6.50098 31.8242 6.22754 32.166C5.9541 32.5078 5.6237 32.7562 5.23633 32.9111C4.85352 33.0615 4.42057 33.1367 3.9375 33.1367C3.55469 33.1367 3.2015 33.0889 2.87793 32.9932C2.55436 32.8975 2.2627 32.7448 2.00293 32.5352C1.74772 32.321 1.52897 32.043 1.34668 31.7012C1.16439 31.3594 1.02539 30.9447 0.929688 30.457C0.833984 29.9694 0.786133 29.3997 0.786133 28.748V27.2305C0.786133 26.4147 0.859049 25.7311 1.00488 25.1797C1.15527 24.6283 1.36719 24.1862 1.64062 23.8535C1.91406 23.5163 2.24219 23.2747 2.625 23.1289C3.01237 22.9831 3.44531 22.9102 3.92383 22.9102C4.3112 22.9102 4.66667 22.958 4.99023 23.0537C5.31836 23.1449 5.61003 23.293 5.86523 23.498C6.12044 23.6986 6.33691 23.9674 6.51465 24.3047C6.69694 24.6374 6.83594 25.0452 6.93164 25.5283C7.02734 26.0114 7.0752 26.5788 7.0752 27.2305ZM5.80371 28.9531V27.0186C5.80371 26.5719 5.77637 26.18 5.72168 25.8428C5.67155 25.501 5.59635 25.2093 5.49609 24.9678C5.39583 24.7262 5.26823 24.5303 5.11328 24.3799C4.96289 24.2295 4.78743 24.1201 4.58691 24.0518C4.39095 23.9788 4.16992 23.9424 3.92383 23.9424C3.62305 23.9424 3.35645 23.9993 3.12402 24.1133C2.8916 24.2227 2.69564 24.3981 2.53613 24.6396C2.38118 24.8812 2.2627 25.1979 2.18066 25.5898C2.09863 25.9818 2.05762 26.458 2.05762 27.0186V28.9531C2.05762 29.3997 2.08268 29.7939 2.13281 30.1357C2.1875 30.4775 2.26725 30.7738 2.37207 31.0244C2.47689 31.2705 2.60449 31.4733 2.75488 31.6328C2.90527 31.7923 3.07845 31.9108 3.27441 31.9883C3.47493 32.0612 3.69596 32.0977 3.9375 32.0977C4.2474 32.0977 4.51855 32.0384 4.75098 31.9199C4.9834 31.8014 5.17708 31.6169 5.33203 31.3662C5.49154 31.111 5.61003 30.7852 5.6875 30.3887C5.76497 29.9876 5.80371 29.5091 5.80371 28.9531ZM12.8584 22.9922V33H11.5938V24.5713L9.04395 25.501V24.3594L12.6602 22.9922H12.8584ZM22.8252 27.2305V28.748C22.8252 29.5638 22.7523 30.252 22.6064 30.8125C22.4606 31.373 22.251 31.8242 21.9775 32.166C21.7041 32.5078 21.3737 32.7562 20.9863 32.9111C20.6035 33.0615 20.1706 33.1367 19.6875 33.1367C19.3047 33.1367 18.9515 33.0889 18.6279 32.9932C18.3044 32.8975 18.0127 32.7448 17.7529 32.5352C17.4977 32.321 17.279 32.043 17.0967 31.7012C16.9144 31.3594 16.7754 30.9447 16.6797 30.457C16.584 29.9694 16.5361 29.3997 16.5361 28.748V27.2305C16.5361 26.4147 16.609 25.7311 16.7549 25.1797C16.9053 24.6283 17.1172 24.1862 17.3906 23.8535C17.6641 23.5163 17.9922 23.2747 18.375 23.1289C18.7624 22.9831 19.1953 22.9102 19.6738 22.9102C20.0612 22.9102 20.4167 22.958 20.7402 23.0537C21.0684 23.1449 21.36 23.293 21.6152 23.498C21.8704 23.6986 22.0869 23.9674 22.2646 24.3047C22.4469 24.6374 22.5859 25.0452 22.6816 25.5283C22.7773 26.0114 22.8252 26.5788 22.8252 27.2305ZM21.5537 28.9531V27.0186C21.5537 26.5719 21.5264 26.18 21.4717 25.8428C21.4215 25.501 21.3464 25.2093 21.2461 24.9678C21.1458 24.7262 21.0182 24.5303 20.8633 24.3799C20.7129 24.2295 20.5374 24.1201 20.3369 24.0518C20.141 23.9788 19.9199 23.9424 19.6738 23.9424C19.373 23.9424 19.1064 23.9993 18.874 24.1133C18.6416 24.2227 18.4456 24.3981 18.2861 24.6396C18.1312 24.8812 18.0127 25.1979 17.9307 25.5898C17.8486 25.9818 17.8076 26.458 17.8076 27.0186V28.9531C17.8076 29.3997 17.8327 29.7939 17.8828 30.1357C17.9375 30.4775 18.0173 30.7738 18.1221 31.0244C18.2269 31.2705 18.3545 31.4733 18.5049 31.6328C18.6553 31.7923 18.8285 31.9108 19.0244 31.9883C19.2249 32.0612 19.446 32.0977 19.6875 32.0977C19.9974 32.0977 20.2686 32.0384 20.501 31.9199C20.7334 31.8014 20.9271 31.6169 21.082 31.3662C21.2415 31.111 21.36 30.7852 21.4375 30.3887C21.515 29.9876 21.5537 29.5091 21.5537 28.9531ZM29.3057 23.0332H29.415V24.1064H29.3057C28.6357 24.1064 28.0752 24.2158 27.624 24.4346C27.1729 24.6488 26.8151 24.9382 26.5508 25.3027C26.2865 25.6628 26.0951 26.0684 25.9766 26.5195C25.8626 26.9707 25.8057 27.4287 25.8057 27.8936V29.3564C25.8057 29.7985 25.8581 30.1904 25.9629 30.5322C26.0677 30.8695 26.2113 31.1543 26.3936 31.3867C26.5758 31.6191 26.7809 31.7946 27.0088 31.9131C27.2412 32.0316 27.4827 32.0908 27.7334 32.0908C28.0251 32.0908 28.2848 32.0361 28.5127 31.9268C28.7406 31.8128 28.932 31.6556 29.0869 31.4551C29.2464 31.25 29.3672 31.0085 29.4492 30.7305C29.5312 30.4525 29.5723 30.1471 29.5723 29.8145C29.5723 29.5182 29.5358 29.2334 29.4629 28.96C29.39 28.682 29.2783 28.4359 29.1279 28.2217C28.9775 28.0029 28.7884 27.832 28.5605 27.709C28.3372 27.5814 28.0706 27.5176 27.7607 27.5176C27.4098 27.5176 27.0817 27.6042 26.7764 27.7773C26.4756 27.946 26.2272 28.1693 26.0312 28.4473C25.8398 28.7207 25.7305 29.0192 25.7031 29.3428L25.0332 29.3359C25.097 28.8255 25.2155 28.3903 25.3887 28.0303C25.5664 27.6657 25.7852 27.3695 26.0449 27.1416C26.3092 26.9092 26.6032 26.7406 26.9268 26.6357C27.2549 26.5264 27.6012 26.4717 27.9658 26.4717C28.4626 26.4717 28.891 26.5651 29.251 26.752C29.611 26.9388 29.9072 27.1895 30.1396 27.5039C30.3721 27.8138 30.543 28.1647 30.6523 28.5566C30.7663 28.944 30.8232 29.3428 30.8232 29.7529C30.8232 30.2223 30.7572 30.6621 30.625 31.0723C30.4928 31.4824 30.2946 31.8424 30.0303 32.1523C29.7705 32.4622 29.4492 32.7038 29.0664 32.877C28.6836 33.0501 28.2393 33.1367 27.7334 33.1367C27.1956 33.1367 26.7262 33.0273 26.3252 32.8086C25.9242 32.5853 25.5915 32.2891 25.3271 31.9199C25.0628 31.5508 24.8646 31.1406 24.7324 30.6895C24.6003 30.2383 24.5342 29.7803 24.5342 29.3154V28.7207C24.5342 28.0189 24.6048 27.3307 24.7461 26.6562C24.8874 25.9818 25.1312 25.3711 25.4775 24.8242C25.8285 24.2773 26.3138 23.8421 26.9336 23.5186C27.5534 23.195 28.3441 23.0332 29.3057 23.0332ZM38.7598 23.0469V23.7578L34.6377 33H33.3047L37.4199 24.0859H32.0332V23.0469H38.7598ZM46.6963 33H44.6182L44.6318 31.9268H46.6963C47.4072 31.9268 47.9997 31.7786 48.4736 31.4824C48.9476 31.1816 49.3031 30.7624 49.54 30.2246C49.7816 29.6823 49.9023 29.0488 49.9023 28.3242V27.7158C49.9023 27.1462 49.834 26.6403 49.6973 26.1982C49.5605 25.7516 49.36 25.3757 49.0957 25.0703C48.8314 24.7604 48.5078 24.5257 48.125 24.3662C47.7467 24.2067 47.3115 24.127 46.8193 24.127H44.5771V23.0469H46.8193C47.471 23.0469 48.0658 23.1562 48.6035 23.375C49.1413 23.5892 49.6038 23.9014 49.9912 24.3115C50.3831 24.7171 50.6839 25.2093 50.8936 25.7881C51.1032 26.3623 51.208 27.0094 51.208 27.7295V28.3242C51.208 29.0443 51.1032 29.6937 50.8936 30.2725C50.6839 30.8467 50.3809 31.3366 49.9844 31.7422C49.5924 32.1478 49.1185 32.46 48.5625 32.6787C48.0111 32.8929 47.389 33 46.6963 33ZM45.3223 23.0469V33H44.0029V23.0469H45.3223ZM54.2637 26.7656V33H52.999V25.6035H54.2295L54.2637 26.7656ZM56.5742 25.5625L56.5674 26.7383C56.4626 26.7155 56.3623 26.7018 56.2666 26.6973C56.1755 26.6882 56.0706 26.6836 55.9521 26.6836C55.6605 26.6836 55.403 26.7292 55.1797 26.8203C54.9564 26.9115 54.7673 27.0391 54.6123 27.2031C54.4574 27.3672 54.3343 27.5632 54.2432 27.791C54.1566 28.0143 54.0996 28.2604 54.0723 28.5293L53.7168 28.7344C53.7168 28.2878 53.7601 27.8685 53.8467 27.4766C53.9378 27.0846 54.0768 26.7383 54.2637 26.4375C54.4505 26.1322 54.6875 25.8952 54.9746 25.7266C55.2663 25.5534 55.6126 25.4668 56.0137 25.4668C56.1048 25.4668 56.2096 25.4782 56.3281 25.501C56.4466 25.5192 56.5286 25.5397 56.5742 25.5625ZM60.6758 33.1367C60.1608 33.1367 59.6937 33.0501 59.2744 32.877C58.8597 32.6992 58.502 32.4508 58.2012 32.1318C57.9049 31.8128 57.6771 31.4346 57.5176 30.9971C57.3581 30.5596 57.2783 30.0811 57.2783 29.5615V29.2744C57.2783 28.6729 57.3672 28.1374 57.5449 27.668C57.7227 27.194 57.9642 26.793 58.2695 26.4648C58.5749 26.1367 58.9212 25.8883 59.3086 25.7197C59.696 25.5511 60.097 25.4668 60.5117 25.4668C61.0404 25.4668 61.4961 25.5579 61.8789 25.7402C62.2663 25.9225 62.583 26.1777 62.8291 26.5059C63.0752 26.8294 63.2575 27.2122 63.376 27.6543C63.4945 28.0918 63.5537 28.5703 63.5537 29.0898V29.6572H58.0303V28.625H62.2891V28.5293C62.2708 28.2012 62.2025 27.8822 62.084 27.5723C61.9701 27.2624 61.7878 27.0072 61.5371 26.8066C61.2865 26.6061 60.9447 26.5059 60.5117 26.5059C60.2246 26.5059 59.9603 26.5674 59.7188 26.6904C59.4772 26.8089 59.2699 26.9867 59.0967 27.2236C58.9235 27.4606 58.7891 27.75 58.6934 28.0918C58.5977 28.4336 58.5498 28.8278 58.5498 29.2744V29.5615C58.5498 29.9124 58.5977 30.2428 58.6934 30.5527C58.7936 30.8581 58.9372 31.127 59.124 31.3594C59.3154 31.5918 59.5456 31.7741 59.8145 31.9062C60.0879 32.0384 60.3978 32.1045 60.7441 32.1045C61.1908 32.1045 61.569 32.0133 61.8789 31.8311C62.1888 31.6488 62.46 31.4049 62.6924 31.0996L63.458 31.708C63.2985 31.9495 63.0957 32.1797 62.8496 32.3984C62.6035 32.6172 62.3005 32.7949 61.9404 32.9316C61.585 33.0684 61.1634 33.1367 60.6758 33.1367ZM69.3369 31.0381C69.3369 30.8558 69.2959 30.6872 69.2139 30.5322C69.1364 30.3727 68.9746 30.2292 68.7285 30.1016C68.487 29.9694 68.1224 29.8555 67.6348 29.7598C67.2246 29.6732 66.8532 29.5706 66.5205 29.4521C66.1924 29.3337 65.9121 29.1901 65.6797 29.0215C65.4518 28.8529 65.2764 28.6546 65.1533 28.4268C65.0303 28.1989 64.9688 27.9323 64.9688 27.627C64.9688 27.3353 65.0326 27.0596 65.1602 26.7998C65.2923 26.54 65.4769 26.3099 65.7139 26.1094C65.9554 25.9089 66.2448 25.7516 66.582 25.6377C66.9193 25.5238 67.2952 25.4668 67.71 25.4668C68.3024 25.4668 68.8083 25.5716 69.2275 25.7812C69.6468 25.9909 69.9681 26.2712 70.1914 26.6221C70.4147 26.9684 70.5264 27.3535 70.5264 27.7773H69.2617C69.2617 27.5723 69.2002 27.374 69.0771 27.1826C68.9587 26.9867 68.7832 26.8249 68.5508 26.6973C68.3229 26.5697 68.0426 26.5059 67.71 26.5059C67.359 26.5059 67.0742 26.5605 66.8555 26.6699C66.6413 26.7747 66.484 26.9092 66.3838 27.0732C66.2881 27.2373 66.2402 27.4105 66.2402 27.5928C66.2402 27.7295 66.263 27.8525 66.3086 27.9619C66.3587 28.0667 66.4453 28.1647 66.5684 28.2559C66.6914 28.3424 66.8646 28.4245 67.0879 28.502C67.3112 28.5794 67.596 28.6569 67.9424 28.7344C68.5485 28.8711 69.0475 29.0352 69.4395 29.2266C69.8314 29.418 70.123 29.6527 70.3145 29.9307C70.5059 30.2087 70.6016 30.5459 70.6016 30.9424C70.6016 31.266 70.5332 31.5622 70.3965 31.8311C70.2643 32.0999 70.0706 32.3324 69.8154 32.5283C69.5648 32.7197 69.264 32.8701 68.9131 32.9795C68.5667 33.0843 68.1771 33.1367 67.7441 33.1367C67.0924 33.1367 66.541 33.0205 66.0898 32.7881C65.6387 32.5557 65.2969 32.2549 65.0645 31.8857C64.832 31.5166 64.7158 31.127 64.7158 30.7168H65.9873C66.0055 31.0632 66.1058 31.3389 66.2881 31.5439C66.4704 31.7445 66.6937 31.888 66.958 31.9746C67.2223 32.0566 67.4844 32.0977 67.7441 32.0977C68.0905 32.0977 68.3799 32.0521 68.6123 31.9609C68.8493 31.8698 69.0293 31.7445 69.1523 31.585C69.2754 31.4255 69.3369 31.2432 69.3369 31.0381ZM76.9248 31.5645V22.5H78.1963V33H77.0342L76.9248 31.5645ZM71.9482 29.3838V29.2402C71.9482 28.6751 72.0166 28.1624 72.1533 27.7021C72.2946 27.2373 72.4928 26.8385 72.748 26.5059C73.0078 26.1732 73.3154 25.918 73.6709 25.7402C74.0309 25.5579 74.432 25.4668 74.874 25.4668C75.3389 25.4668 75.7445 25.5488 76.0908 25.7129C76.4417 25.8724 76.738 26.1071 76.9795 26.417C77.2256 26.7223 77.4193 27.0915 77.5605 27.5244C77.7018 27.9574 77.7998 28.4473 77.8545 28.9941V29.623C77.8044 30.1654 77.7064 30.653 77.5605 31.0859C77.4193 31.5189 77.2256 31.888 76.9795 32.1934C76.738 32.4987 76.4417 32.7334 76.0908 32.8975C75.7399 33.057 75.3298 33.1367 74.8604 33.1367C74.4274 33.1367 74.0309 33.0433 73.6709 32.8564C73.3154 32.6696 73.0078 32.4076 72.748 32.0703C72.4928 31.7331 72.2946 31.3366 72.1533 30.8809C72.0166 30.4206 71.9482 29.9215 71.9482 29.3838ZM73.2197 29.2402V29.3838C73.2197 29.7529 73.2562 30.0993 73.3291 30.4229C73.4066 30.7464 73.5251 31.0312 73.6846 31.2773C73.8441 31.5234 74.0469 31.7171 74.293 31.8584C74.5391 31.9951 74.833 32.0635 75.1748 32.0635C75.5941 32.0635 75.9382 31.9746 76.207 31.7969C76.4805 31.6191 76.6992 31.3844 76.8633 31.0928C77.0273 30.8011 77.1549 30.4844 77.2461 30.1426V28.4951C77.1914 28.2445 77.1117 28.0029 77.0068 27.7705C76.9066 27.5335 76.7744 27.3239 76.6104 27.1416C76.4508 26.9548 76.2526 26.8066 76.0156 26.6973C75.7832 26.5879 75.5075 26.5332 75.1885 26.5332C74.8421 26.5332 74.5436 26.6061 74.293 26.752C74.0469 26.8932 73.8441 27.0892 73.6846 27.3398C73.5251 27.5859 73.4066 27.873 73.3291 28.2012C73.2562 28.5247 73.2197 28.8711 73.2197 29.2402ZM83.2344 33.1367C82.7194 33.1367 82.2523 33.0501 81.833 32.877C81.4183 32.6992 81.0605 32.4508 80.7598 32.1318C80.4635 31.8128 80.2357 31.4346 80.0762 30.9971C79.9167 30.5596 79.8369 30.0811 79.8369 29.5615V29.2744C79.8369 28.6729 79.9258 28.1374 80.1035 27.668C80.2812 27.194 80.5228 26.793 80.8281 26.4648C81.1335 26.1367 81.4798 25.8883 81.8672 25.7197C82.2546 25.5511 82.6556 25.4668 83.0703 25.4668C83.599 25.4668 84.0547 25.5579 84.4375 25.7402C84.8249 25.9225 85.1416 26.1777 85.3877 26.5059C85.6338 26.8294 85.8161 27.2122 85.9346 27.6543C86.0531 28.0918 86.1123 28.5703 86.1123 29.0898V29.6572H80.5889V28.625H84.8477V28.5293C84.8294 28.2012 84.7611 27.8822 84.6426 27.5723C84.5286 27.2624 84.3464 27.0072 84.0957 26.8066C83.8451 26.6061 83.5033 26.5059 83.0703 26.5059C82.7832 26.5059 82.5189 26.5674 82.2773 26.6904C82.0358 26.8089 81.8285 26.9867 81.6553 27.2236C81.4821 27.4606 81.3477 27.75 81.252 28.0918C81.1562 28.4336 81.1084 28.8278 81.1084 29.2744V29.5615C81.1084 29.9124 81.1562 30.2428 81.252 30.5527C81.3522 30.8581 81.4958 31.127 81.6826 31.3594C81.874 31.5918 82.1042 31.7741 82.373 31.9062C82.6465 32.0384 82.9564 32.1045 83.3027 32.1045C83.7493 32.1045 84.1276 32.0133 84.4375 31.8311C84.7474 31.6488 85.0186 31.4049 85.251 31.0996L86.0166 31.708C85.8571 31.9495 85.6543 32.1797 85.4082 32.3984C85.1621 32.6172 84.859 32.7949 84.499 32.9316C84.1436 33.0684 83.722 33.1367 83.2344 33.1367ZM88.8535 27.1826V33H87.5889V25.6035H88.7852L88.8535 27.1826ZM88.5527 29.0215L88.0264 29.001C88.0309 28.4951 88.1061 28.028 88.252 27.5996C88.3978 27.1667 88.6029 26.7907 88.8672 26.4717C89.1315 26.1527 89.446 25.9066 89.8105 25.7334C90.1797 25.5557 90.5876 25.4668 91.0342 25.4668C91.3988 25.4668 91.7269 25.5169 92.0186 25.6172C92.3102 25.7129 92.5586 25.8678 92.7637 26.082C92.9733 26.2962 93.1328 26.5742 93.2422 26.916C93.3516 27.2533 93.4062 27.6657 93.4062 28.1533V33H92.1348V28.1396C92.1348 27.7523 92.0778 27.4424 91.9639 27.21C91.8499 26.973 91.6836 26.8021 91.4648 26.6973C91.2461 26.5879 90.9772 26.5332 90.6582 26.5332C90.3438 26.5332 90.0566 26.5993 89.7969 26.7314C89.5417 26.8636 89.3206 27.0459 89.1338 27.2783C88.9515 27.5107 88.8079 27.7773 88.7031 28.0781C88.6029 28.3743 88.5527 28.6888 88.5527 29.0215ZM1.15527 45.0469H4.4502C5.19759 45.0469 5.82878 45.1608 6.34375 45.3887C6.86328 45.6165 7.25749 45.9538 7.52637 46.4004C7.7998 46.8424 7.93652 47.387 7.93652 48.0342C7.93652 48.4899 7.8431 48.9069 7.65625 49.2852C7.47396 49.6589 7.20964 49.9779 6.86328 50.2422C6.52148 50.502 6.11133 50.6956 5.63281 50.8232L5.26367 50.9668H2.16699L2.15332 49.8936H4.49121C4.96517 49.8936 5.35938 49.8115 5.67383 49.6475C5.98828 49.4788 6.22526 49.2533 6.38477 48.9707C6.54427 48.6882 6.62402 48.376 6.62402 48.0342C6.62402 47.6514 6.54883 47.3164 6.39844 47.0293C6.24805 46.7422 6.01107 46.5212 5.6875 46.3662C5.36849 46.2067 4.95605 46.127 4.4502 46.127H2.47461V55H1.15527V45.0469ZM6.97266 55L4.55273 50.4883L5.92676 50.4814L8.38086 54.918V55H6.97266ZM9.25586 51.3838V51.2266C9.25586 50.6934 9.33333 50.1989 9.48828 49.7432C9.64323 49.2829 9.86654 48.8841 10.1582 48.5469C10.4499 48.2051 10.8031 47.9408 11.2178 47.7539C11.6325 47.5625 12.0973 47.4668 12.6123 47.4668C13.1318 47.4668 13.599 47.5625 14.0137 47.7539C14.4329 47.9408 14.7884 48.2051 15.0801 48.5469C15.3763 48.8841 15.6019 49.2829 15.7568 49.7432C15.9118 50.1989 15.9893 50.6934 15.9893 51.2266V51.3838C15.9893 51.917 15.9118 52.4115 15.7568 52.8672C15.6019 53.3229 15.3763 53.7217 15.0801 54.0635C14.7884 54.4007 14.4352 54.665 14.0205 54.8564C13.6104 55.0433 13.1455 55.1367 12.626 55.1367C12.1064 55.1367 11.6393 55.0433 11.2246 54.8564C10.8099 54.665 10.4544 54.4007 10.1582 54.0635C9.86654 53.7217 9.64323 53.3229 9.48828 52.8672C9.33333 52.4115 9.25586 51.917 9.25586 51.3838ZM10.5205 51.2266V51.3838C10.5205 51.7529 10.5638 52.1016 10.6504 52.4297C10.737 52.7533 10.8669 53.0404 11.04 53.291C11.2178 53.5417 11.4388 53.7399 11.7031 53.8857C11.9674 54.027 12.2751 54.0977 12.626 54.0977C12.9723 54.0977 13.2754 54.027 13.5352 53.8857C13.7995 53.7399 14.0182 53.5417 14.1914 53.291C14.3646 53.0404 14.4945 52.7533 14.5811 52.4297C14.6722 52.1016 14.7178 51.7529 14.7178 51.3838V51.2266C14.7178 50.862 14.6722 50.5179 14.5811 50.1943C14.4945 49.8662 14.3623 49.5768 14.1846 49.3262C14.0114 49.071 13.7926 48.8704 13.5283 48.7246C13.2686 48.5788 12.9632 48.5059 12.6123 48.5059C12.266 48.5059 11.9606 48.5788 11.6963 48.7246C11.4365 48.8704 11.2178 49.071 11.04 49.3262C10.8669 49.5768 10.737 49.8662 10.6504 50.1943C10.5638 50.5179 10.5205 50.862 10.5205 51.2266ZM21.8818 53.0381C21.8818 52.8558 21.8408 52.6872 21.7588 52.5322C21.6813 52.3727 21.5195 52.2292 21.2734 52.1016C21.0319 51.9694 20.6673 51.8555 20.1797 51.7598C19.7695 51.6732 19.3981 51.5706 19.0654 51.4521C18.7373 51.3337 18.457 51.1901 18.2246 51.0215C17.9967 50.8529 17.8213 50.6546 17.6982 50.4268C17.5752 50.1989 17.5137 49.9323 17.5137 49.627C17.5137 49.3353 17.5775 49.0596 17.7051 48.7998C17.8372 48.54 18.0218 48.3099 18.2588 48.1094C18.5003 47.9089 18.7897 47.7516 19.127 47.6377C19.4642 47.5238 19.8402 47.4668 20.2549 47.4668C20.8473 47.4668 21.3532 47.5716 21.7725 47.7812C22.1917 47.9909 22.513 48.2712 22.7363 48.6221C22.9596 48.9684 23.0713 49.3535 23.0713 49.7773H21.8066C21.8066 49.5723 21.7451 49.374 21.6221 49.1826C21.5036 48.9867 21.3281 48.8249 21.0957 48.6973C20.8678 48.5697 20.5876 48.5059 20.2549 48.5059C19.904 48.5059 19.6191 48.5605 19.4004 48.6699C19.1862 48.7747 19.029 48.9092 18.9287 49.0732C18.833 49.2373 18.7852 49.4105 18.7852 49.5928C18.7852 49.7295 18.8079 49.8525 18.8535 49.9619C18.9036 50.0667 18.9902 50.1647 19.1133 50.2559C19.2363 50.3424 19.4095 50.4245 19.6328 50.502C19.8561 50.5794 20.141 50.6569 20.4873 50.7344C21.0934 50.8711 21.5924 51.0352 21.9844 51.2266C22.3763 51.418 22.668 51.6527 22.8594 51.9307C23.0508 52.2087 23.1465 52.5459 23.1465 52.9424C23.1465 53.266 23.0781 53.5622 22.9414 53.8311C22.8092 54.0999 22.6156 54.3324 22.3604 54.5283C22.1097 54.7197 21.8089 54.8701 21.458 54.9795C21.1117 55.0843 20.722 55.1367 20.2891 55.1367C19.6374 55.1367 19.0859 55.0205 18.6348 54.7881C18.1836 54.5557 17.8418 54.2549 17.6094 53.8857C17.377 53.5166 17.2607 53.127 17.2607 52.7168H18.5322C18.5505 53.0632 18.6507 53.3389 18.833 53.5439C19.0153 53.7445 19.2386 53.888 19.5029 53.9746C19.7673 54.0566 20.0293 54.0977 20.2891 54.0977C20.6354 54.0977 20.9248 54.0521 21.1572 53.9609C21.3942 53.8698 21.5742 53.7445 21.6973 53.585C21.8203 53.4255 21.8818 53.2432 21.8818 53.0381ZM27.877 55.1367C27.362 55.1367 26.8949 55.0501 26.4756 54.877C26.0609 54.6992 25.7031 54.4508 25.4023 54.1318C25.1061 53.8128 24.8783 53.4346 24.7188 52.9971C24.5592 52.5596 24.4795 52.0811 24.4795 51.5615V51.2744C24.4795 50.6729 24.5684 50.1374 24.7461 49.668C24.9238 49.194 25.1654 48.793 25.4707 48.4648C25.776 48.1367 26.1224 47.8883 26.5098 47.7197C26.8971 47.5511 27.2982 47.4668 27.7129 47.4668C28.2415 47.4668 28.6973 47.5579 29.0801 47.7402C29.4674 47.9225 29.7842 48.1777 30.0303 48.5059C30.2764 48.8294 30.4587 49.2122 30.5771 49.6543C30.6956 50.0918 30.7549 50.5703 30.7549 51.0898V51.6572H25.2314V50.625H29.4902V50.5293C29.472 50.2012 29.4036 49.8822 29.2852 49.5723C29.1712 49.2624 28.9889 49.0072 28.7383 48.8066C28.4876 48.6061 28.1458 48.5059 27.7129 48.5059C27.4258 48.5059 27.1615 48.5674 26.9199 48.6904C26.6784 48.8089 26.471 48.9867 26.2979 49.2236C26.1247 49.4606 25.9902 49.75 25.8945 50.0918C25.7988 50.4336 25.751 50.8278 25.751 51.2744V51.5615C25.751 51.9124 25.7988 52.2428 25.8945 52.5527C25.9948 52.8581 26.1383 53.127 26.3252 53.3594C26.5166 53.5918 26.7467 53.7741 27.0156 53.9062C27.2891 54.0384 27.599 54.1045 27.9453 54.1045C28.3919 54.1045 28.7702 54.0133 29.0801 53.8311C29.39 53.6488 29.6611 53.4049 29.8936 53.0996L30.6592 53.708C30.4997 53.9495 30.2969 54.1797 30.0508 54.3984C29.8047 54.6172 29.5016 54.7949 29.1416 54.9316C28.7861 55.0684 28.3646 55.1367 27.877 55.1367ZM33.4961 49.1826V55H32.2314V47.6035H33.4277L33.4961 49.1826ZM33.1953 51.0215L32.6689 51.001C32.6735 50.4951 32.7487 50.028 32.8945 49.5996C33.0404 49.1667 33.2454 48.7907 33.5098 48.4717C33.7741 48.1527 34.0885 47.9066 34.4531 47.7334C34.8223 47.5557 35.2301 47.4668 35.6768 47.4668C36.0413 47.4668 36.3695 47.5169 36.6611 47.6172C36.9528 47.7129 37.2012 47.8678 37.4062 48.082C37.6159 48.2962 37.7754 48.5742 37.8848 48.916C37.9941 49.2533 38.0488 49.6657 38.0488 50.1533V55H36.7773V50.1396C36.7773 49.7523 36.7204 49.4424 36.6064 49.21C36.4925 48.973 36.3262 48.8021 36.1074 48.6973C35.8887 48.5879 35.6198 48.5332 35.3008 48.5332C34.9863 48.5332 34.6992 48.5993 34.4395 48.7314C34.1842 48.8636 33.9632 49.0459 33.7764 49.2783C33.5941 49.5107 33.4505 49.7773 33.3457 50.0781C33.2454 50.3743 33.1953 50.6888 33.1953 51.0215ZM44.2764 53.0381C44.2764 52.8558 44.2354 52.6872 44.1533 52.5322C44.0758 52.3727 43.9141 52.2292 43.668 52.1016C43.4264 51.9694 43.0618 51.8555 42.5742 51.7598C42.1641 51.6732 41.7926 51.5706 41.46 51.4521C41.1318 51.3337 40.8516 51.1901 40.6191 51.0215C40.3913 50.8529 40.2158 50.6546 40.0928 50.4268C39.9697 50.1989 39.9082 49.9323 39.9082 49.627C39.9082 49.3353 39.972 49.0596 40.0996 48.7998C40.2318 48.54 40.4163 48.3099 40.6533 48.1094C40.8949 47.9089 41.1842 47.7516 41.5215 47.6377C41.8587 47.5238 42.2347 47.4668 42.6494 47.4668C43.2419 47.4668 43.7477 47.5716 44.167 47.7812C44.5863 47.9909 44.9076 48.2712 45.1309 48.6221C45.3542 48.9684 45.4658 49.3535 45.4658 49.7773H44.2012C44.2012 49.5723 44.1396 49.374 44.0166 49.1826C43.8981 48.9867 43.7227 48.8249 43.4902 48.6973C43.2624 48.5697 42.9821 48.5059 42.6494 48.5059C42.2985 48.5059 42.0137 48.5605 41.7949 48.6699C41.5807 48.7747 41.4235 48.9092 41.3232 49.0732C41.2275 49.2373 41.1797 49.4105 41.1797 49.5928C41.1797 49.7295 41.2025 49.8525 41.248 49.9619C41.2982 50.0667 41.3848 50.1647 41.5078 50.2559C41.6309 50.3424 41.804 50.4245 42.0273 50.502C42.2507 50.5794 42.5355 50.6569 42.8818 50.7344C43.488 50.8711 43.987 51.0352 44.3789 51.2266C44.7708 51.418 45.0625 51.6527 45.2539 51.9307C45.4453 52.2087 45.541 52.5459 45.541 52.9424C45.541 53.266 45.4727 53.5622 45.3359 53.8311C45.2038 54.0999 45.0101 54.3324 44.7549 54.5283C44.5042 54.7197 44.2035 54.8701 43.8525 54.9795C43.5062 55.0843 43.1165 55.1367 42.6836 55.1367C42.0319 55.1367 41.4805 55.0205 41.0293 54.7881C40.5781 54.5557 40.2363 54.2549 40.0039 53.8857C39.7715 53.5166 39.6553 53.127 39.6553 52.7168H40.9268C40.945 53.0632 41.0452 53.3389 41.2275 53.5439C41.4098 53.7445 41.6331 53.888 41.8975 53.9746C42.1618 54.0566 42.4238 54.0977 42.6836 54.0977C43.0299 54.0977 43.3193 54.0521 43.5518 53.9609C43.7887 53.8698 43.9688 53.7445 44.0918 53.585C44.2148 53.4255 44.2764 53.2432 44.2764 53.0381ZM50.2988 47.6035V48.5742H46.2998V47.6035H50.2988ZM47.6533 45.8057H48.918V53.168C48.918 53.4186 48.9567 53.6077 49.0342 53.7354C49.1117 53.863 49.2119 53.9473 49.335 53.9883C49.458 54.0293 49.5902 54.0498 49.7314 54.0498C49.8363 54.0498 49.9456 54.0407 50.0596 54.0225C50.1781 53.9997 50.2669 53.9814 50.3262 53.9678L50.333 55C50.2327 55.0319 50.1006 55.0615 49.9365 55.0889C49.777 55.1208 49.5833 55.1367 49.3555 55.1367C49.0456 55.1367 48.7607 55.0752 48.501 54.9521C48.2412 54.8291 48.0339 54.624 47.8789 54.3369C47.7285 54.0452 47.6533 53.6533 47.6533 53.1611V45.8057ZM53.0469 48.7656V55H51.7822V47.6035H53.0127L53.0469 48.7656ZM55.3574 47.5625L55.3506 48.7383C55.2458 48.7155 55.1455 48.7018 55.0498 48.6973C54.9587 48.6882 54.8538 48.6836 54.7354 48.6836C54.4437 48.6836 54.1862 48.7292 53.9629 48.8203C53.7396 48.9115 53.5505 49.0391 53.3955 49.2031C53.2406 49.3672 53.1175 49.5632 53.0264 49.791C52.9398 50.0143 52.8828 50.2604 52.8555 50.5293L52.5 50.7344C52.5 50.2878 52.5433 49.8685 52.6299 49.4766C52.721 49.0846 52.86 48.7383 53.0469 48.4375C53.2337 48.1322 53.4707 47.8952 53.7578 47.7266C54.0495 47.5534 54.3958 47.4668 54.7969 47.4668C54.888 47.4668 54.9928 47.4782 55.1113 47.501C55.2298 47.5192 55.3118 47.5397 55.3574 47.5625ZM60.6143 53.7354V49.9277C60.6143 49.6361 60.555 49.3831 60.4365 49.1689C60.3226 48.9502 60.1494 48.7816 59.917 48.6631C59.6846 48.5446 59.3975 48.4854 59.0557 48.4854C58.7367 48.4854 58.4564 48.54 58.2148 48.6494C57.9779 48.7588 57.791 48.9023 57.6543 49.0801C57.5221 49.2578 57.4561 49.4492 57.4561 49.6543H56.1914C56.1914 49.39 56.2598 49.1279 56.3965 48.8682C56.5332 48.6084 56.7292 48.3737 56.9844 48.1641C57.2441 47.9499 57.554 47.7812 57.9141 47.6582C58.2786 47.5306 58.6842 47.4668 59.1309 47.4668C59.6686 47.4668 60.1426 47.5579 60.5527 47.7402C60.9674 47.9225 61.291 48.1982 61.5234 48.5674C61.7604 48.932 61.8789 49.39 61.8789 49.9414V53.3867C61.8789 53.6328 61.8994 53.8949 61.9404 54.1729C61.986 54.4508 62.0521 54.6901 62.1387 54.8906V55H60.8193C60.7555 54.8542 60.7054 54.6605 60.6689 54.4189C60.6325 54.1729 60.6143 53.945 60.6143 53.7354ZM60.833 50.5156L60.8467 51.4043H59.5684C59.2083 51.4043 58.887 51.4339 58.6045 51.4932C58.3219 51.5479 58.085 51.6322 57.8936 51.7461C57.7021 51.86 57.5563 52.0036 57.4561 52.1768C57.3558 52.3454 57.3057 52.5436 57.3057 52.7715C57.3057 53.0039 57.3581 53.2158 57.4629 53.4072C57.5677 53.5986 57.7249 53.7513 57.9346 53.8652C58.1488 53.9746 58.4108 54.0293 58.7207 54.0293C59.1081 54.0293 59.4499 53.9473 59.7461 53.7832C60.0423 53.6191 60.277 53.4186 60.4502 53.1816C60.6279 52.9447 60.7236 52.7145 60.7373 52.4912L61.2773 53.0996C61.2454 53.291 61.1589 53.5029 61.0176 53.7354C60.8763 53.9678 60.6872 54.1911 60.4502 54.4053C60.2178 54.6149 59.9398 54.7904 59.6162 54.9316C59.2972 55.0684 58.9372 55.1367 58.5361 55.1367C58.0348 55.1367 57.5951 55.0387 57.2168 54.8428C56.8431 54.6468 56.5514 54.3848 56.3418 54.0566C56.1367 53.724 56.0342 53.3525 56.0342 52.9424C56.0342 52.5459 56.1117 52.1973 56.2666 51.8965C56.4215 51.5911 56.6449 51.3382 56.9365 51.1377C57.2282 50.9326 57.5791 50.7777 57.9893 50.6729C58.3994 50.568 58.8574 50.5156 59.3633 50.5156H60.833ZM65.1191 47.3984V55H63.8613V47.3984C63.8613 46.8971 63.9251 46.4596 64.0527 46.0859C64.1849 45.7077 64.3695 45.3932 64.6064 45.1426C64.8434 44.8874 65.126 44.696 65.4541 44.5684C65.7822 44.4408 66.1468 44.377 66.5479 44.377C67.0446 44.377 67.4844 44.459 67.8672 44.623C68.2546 44.7871 68.5599 45.04 68.7832 45.3818C69.0065 45.7191 69.1182 46.152 69.1182 46.6807C69.1182 47.0452 69.0726 47.3506 68.9814 47.5967C68.8949 47.8382 68.7946 48.0524 68.6807 48.2393C68.5667 48.4215 68.4642 48.6016 68.373 48.7793C68.2865 48.957 68.2432 49.1621 68.2432 49.3945C68.2432 49.6452 68.3229 49.8708 68.4824 50.0713C68.6419 50.2673 68.8402 50.4564 69.0771 50.6387C69.3141 50.821 69.5511 51.0146 69.7881 51.2197C70.0296 51.4248 70.2301 51.6572 70.3896 51.917C70.5492 52.1768 70.6289 52.4821 70.6289 52.833C70.6289 53.3525 70.515 53.7832 70.2871 54.125C70.0638 54.4668 69.7539 54.722 69.3574 54.8906C68.9609 55.0547 68.5075 55.1367 67.9971 55.1367C67.751 55.1367 67.4912 55.1117 67.2178 55.0615C66.9443 55.016 66.6937 54.9567 66.4658 54.8838C66.2425 54.8063 66.0716 54.7266 65.9531 54.6445L66.2402 53.585C66.3997 53.6852 66.6299 53.7969 66.9307 53.9199C67.236 54.043 67.5482 54.1045 67.8672 54.1045C68.2227 54.1045 68.5098 54.0498 68.7285 53.9404C68.9518 53.8311 69.1136 53.6852 69.2139 53.5029C69.3141 53.3206 69.3643 53.1178 69.3643 52.8945C69.3643 52.6348 69.2845 52.4069 69.125 52.2109C68.9655 52.0104 68.7673 51.819 68.5303 51.6367C68.2933 51.4499 68.054 51.2539 67.8125 51.0488C67.5755 50.8438 67.3773 50.6068 67.2178 50.3379C67.0583 50.069 66.9785 49.75 66.9785 49.3809C66.9785 49.1074 67.0264 48.8659 67.1221 48.6562C67.2178 48.4466 67.3271 48.2507 67.4502 48.0684C67.5732 47.8815 67.6826 47.6878 67.7783 47.4873C67.874 47.2822 67.9219 47.0498 67.9219 46.79C67.9219 46.4847 67.8649 46.2318 67.751 46.0312C67.637 45.8262 67.4821 45.6712 67.2861 45.5664C67.0902 45.4616 66.8669 45.4092 66.6162 45.4092C66.3018 45.4092 66.0329 45.4798 65.8096 45.6211C65.5863 45.7624 65.4154 45.9811 65.2969 46.2773C65.1784 46.569 65.1191 46.9427 65.1191 47.3984ZM75.2637 55.1367C74.7487 55.1367 74.2816 55.0501 73.8623 54.877C73.4476 54.6992 73.0898 54.4508 72.7891 54.1318C72.4928 53.8128 72.265 53.4346 72.1055 52.9971C71.946 52.5596 71.8662 52.0811 71.8662 51.5615V51.2744C71.8662 50.6729 71.9551 50.1374 72.1328 49.668C72.3105 49.194 72.5521 48.793 72.8574 48.4648C73.1628 48.1367 73.5091 47.8883 73.8965 47.7197C74.2839 47.5511 74.6849 47.4668 75.0996 47.4668C75.6283 47.4668 76.084 47.5579 76.4668 47.7402C76.8542 47.9225 77.1709 48.1777 77.417 48.5059C77.6631 48.8294 77.8454 49.2122 77.9639 49.6543C78.0824 50.0918 78.1416 50.5703 78.1416 51.0898V51.6572H72.6182V50.625H76.877V50.5293C76.8587 50.2012 76.7904 49.8822 76.6719 49.5723C76.5579 49.2624 76.3757 49.0072 76.125 48.8066C75.8743 48.6061 75.5326 48.5059 75.0996 48.5059C74.8125 48.5059 74.5482 48.5674 74.3066 48.6904C74.0651 48.8089 73.8577 48.9867 73.6846 49.2236C73.5114 49.4606 73.377 49.75 73.2812 50.0918C73.1855 50.4336 73.1377 50.8278 73.1377 51.2744V51.5615C73.1377 51.9124 73.1855 52.2428 73.2812 52.5527C73.3815 52.8581 73.5251 53.127 73.7119 53.3594C73.9033 53.5918 74.1335 53.7741 74.4023 53.9062C74.6758 54.0384 74.9857 54.1045 75.332 54.1045C75.7786 54.1045 76.1569 54.0133 76.4668 53.8311C76.7767 53.6488 77.0479 53.4049 77.2803 53.0996L78.0459 53.708C77.8864 53.9495 77.6836 54.1797 77.4375 54.3984C77.1914 54.6172 76.8883 54.7949 76.5283 54.9316C76.1729 55.0684 75.7513 55.1367 75.2637 55.1367ZM87.1104 44.9922V55H85.8457V46.5713L83.2959 47.501V46.3594L86.9121 44.9922H87.1104ZM92.4287 50.2627L91.417 50.0029L91.916 45.0469H97.0225V46.2158H92.9893L92.6885 48.9229C92.8708 48.818 93.1009 48.7201 93.3789 48.6289C93.6615 48.5378 93.985 48.4922 94.3496 48.4922C94.8099 48.4922 95.2223 48.5719 95.5869 48.7314C95.9515 48.8864 96.2614 49.1097 96.5166 49.4014C96.7764 49.693 96.9746 50.0439 97.1113 50.4541C97.248 50.8643 97.3164 51.3223 97.3164 51.8281C97.3164 52.3066 97.2503 52.7464 97.1182 53.1475C96.9906 53.5485 96.7969 53.8994 96.5371 54.2002C96.2773 54.4964 95.9492 54.7266 95.5527 54.8906C95.1608 55.0547 94.6982 55.1367 94.165 55.1367C93.764 55.1367 93.3835 55.082 93.0234 54.9727C92.668 54.8587 92.349 54.6878 92.0664 54.46C91.7884 54.2275 91.5605 53.9404 91.3828 53.5986C91.2096 53.2523 91.1003 52.8467 91.0547 52.3818H92.2578C92.3125 52.7555 92.4219 53.07 92.5859 53.3252C92.75 53.5804 92.9642 53.7741 93.2285 53.9062C93.4974 54.0339 93.8096 54.0977 94.165 54.0977C94.4658 54.0977 94.7324 54.0452 94.9648 53.9404C95.1973 53.8356 95.3932 53.6852 95.5527 53.4893C95.7122 53.2933 95.833 53.0563 95.915 52.7783C96.0016 52.5003 96.0449 52.1882 96.0449 51.8418C96.0449 51.5273 96.0016 51.2357 95.915 50.9668C95.8285 50.6979 95.6986 50.4632 95.5254 50.2627C95.3568 50.0622 95.1494 49.9072 94.9033 49.7979C94.6572 49.6839 94.3747 49.627 94.0557 49.627C93.6318 49.627 93.3105 49.6839 93.0918 49.7979C92.8776 49.9118 92.6566 50.0667 92.4287 50.2627Z"
          fill="white" fill-opacity="0.9"/>
</svg>
