<svg width="207" height="15" viewBox="0 0 207 15" fill="none" xmlns="http://www.w3.org/2000/svg">
    <path d="M0.957031 0.5H2.22852V9.56445L2.11914 11H0.957031V0.5ZM7.22559 7.24023V7.38379C7.22559 7.92155 7.16178 8.42057 7.03418 8.88086C6.90658 9.33659 6.71973 9.73307 6.47363 10.0703C6.22754 10.4076 5.92676 10.6696 5.57129 10.8564C5.21582 11.0433 4.80794 11.1367 4.34766 11.1367C3.87826 11.1367 3.46582 11.057 3.11035 10.8975C2.75944 10.7334 2.46322 10.4987 2.22168 10.1934C1.98014 9.88802 1.78646 9.51888 1.64062 9.08594C1.49935 8.65299 1.40137 8.16536 1.34668 7.62305V6.99414C1.40137 6.44727 1.49935 5.95736 1.64062 5.52441C1.78646 5.09147 1.98014 4.72233 2.22168 4.41699C2.46322 4.1071 2.75944 3.8724 3.11035 3.71289C3.46126 3.54883 3.86914 3.4668 4.33398 3.4668C4.79883 3.4668 5.21126 3.55794 5.57129 3.74023C5.93132 3.91797 6.2321 4.17318 6.47363 4.50586C6.71973 4.83854 6.90658 5.2373 7.03418 5.70215C7.16178 6.16243 7.22559 6.67513 7.22559 7.24023ZM5.9541 7.38379V7.24023C5.9541 6.87109 5.91992 6.52474 5.85156 6.20117C5.7832 5.87305 5.67383 5.58594 5.52344 5.33984C5.37305 5.08919 5.1748 4.89323 4.92871 4.75195C4.68262 4.60612 4.37956 4.5332 4.01953 4.5332C3.70052 4.5332 3.42253 4.58789 3.18555 4.69727C2.95312 4.80664 2.75488 4.95475 2.59082 5.1416C2.42676 5.32389 2.29232 5.53353 2.1875 5.77051C2.08724 6.00293 2.01204 6.24447 1.96191 6.49512V8.14258C2.03483 8.46159 2.15332 8.76921 2.31738 9.06543C2.486 9.3571 2.70931 9.59635 2.9873 9.7832C3.26986 9.97005 3.61849 10.0635 4.0332 10.0635C4.375 10.0635 4.66667 9.99512 4.9082 9.8584C5.1543 9.71712 5.35254 9.52344 5.50293 9.27734C5.65788 9.03125 5.77181 8.74642 5.84473 8.42285C5.91764 8.09928 5.9541 7.75293 5.9541 7.38379ZM10.1992 3.60352V11H8.92773V3.60352H10.1992ZM8.83203 1.6416C8.83203 1.43652 8.89355 1.26335 9.0166 1.12207C9.14421 0.980794 9.33105 0.910156 9.57715 0.910156C9.81868 0.910156 10.0033 0.980794 10.1309 1.12207C10.263 1.26335 10.3291 1.43652 10.3291 1.6416C10.3291 1.83757 10.263 2.00618 10.1309 2.14746C10.0033 2.28418 9.81868 2.35254 9.57715 2.35254C9.33105 2.35254 9.14421 2.28418 9.0166 2.14746C8.89355 2.00618 8.83203 1.83757 8.83203 1.6416ZM17.0215 3.60352H18.1699V10.8428C18.1699 11.4945 18.0378 12.0505 17.7734 12.5107C17.5091 12.971 17.14 13.3197 16.666 13.5566C16.1966 13.7982 15.6543 13.9189 15.0391 13.9189C14.7839 13.9189 14.4831 13.8779 14.1367 13.7959C13.7949 13.7184 13.4577 13.584 13.125 13.3926C12.7969 13.2057 12.5212 12.9528 12.2979 12.6338L12.9609 11.8818C13.2708 12.2555 13.5944 12.5153 13.9316 12.6611C14.2734 12.807 14.6107 12.8799 14.9434 12.8799C15.3444 12.8799 15.6908 12.8047 15.9824 12.6543C16.2741 12.5039 16.4997 12.2806 16.6592 11.9844C16.8232 11.6927 16.9053 11.3327 16.9053 10.9043V5.23047L17.0215 3.60352ZM11.9287 7.38379V7.24023C11.9287 6.67513 11.9948 6.16243 12.127 5.70215C12.2637 5.2373 12.4574 4.83854 12.708 4.50586C12.9632 4.17318 13.2708 3.91797 13.6309 3.74023C13.9909 3.55794 14.3965 3.4668 14.8477 3.4668C15.3125 3.4668 15.7181 3.54883 16.0645 3.71289C16.4154 3.8724 16.7116 4.1071 16.9531 4.41699C17.1992 4.72233 17.3929 5.09147 17.5342 5.52441C17.6755 5.95736 17.7734 6.44727 17.8281 6.99414V7.62305C17.778 8.16536 17.68 8.65299 17.5342 9.08594C17.3929 9.51888 17.1992 9.88802 16.9531 10.1934C16.7116 10.4987 16.4154 10.7334 16.0645 10.8975C15.7135 11.057 15.3034 11.1367 14.834 11.1367C14.3919 11.1367 13.9909 11.0433 13.6309 10.8564C13.2754 10.6696 12.9701 10.4076 12.7148 10.0703C12.4596 9.73307 12.2637 9.33659 12.127 8.88086C11.9948 8.42057 11.9287 7.92155 11.9287 7.38379ZM13.1934 7.24023V7.38379C13.1934 7.75293 13.2298 8.09928 13.3027 8.42285C13.3802 8.74642 13.4964 9.03125 13.6514 9.27734C13.8109 9.52344 14.0137 9.71712 14.2598 9.8584C14.5059 9.99512 14.7998 10.0635 15.1416 10.0635C15.5609 10.0635 15.9072 9.97461 16.1807 9.79688C16.4541 9.61914 16.6706 9.38444 16.8301 9.09277C16.9941 8.80111 17.1217 8.48438 17.2129 8.14258V6.49512C17.1628 6.24447 17.0853 6.00293 16.9805 5.77051C16.8802 5.53353 16.748 5.32389 16.584 5.1416C16.4245 4.95475 16.2262 4.80664 15.9893 4.69727C15.7523 4.58789 15.4743 4.5332 15.1553 4.5332C14.8089 4.5332 14.5104 4.60612 14.2598 4.75195C14.0137 4.89323 13.8109 5.08919 13.6514 5.33984C13.4964 5.58594 13.3802 5.87305 13.3027 6.20117C13.2298 6.52474 13.1934 6.87109 13.1934 7.24023ZM21.5537 6.2627L20.542 6.00293L21.041 1.04688H26.1475V2.21582H22.1143L21.8135 4.92285C21.9958 4.81803 22.2259 4.72005 22.5039 4.62891C22.7865 4.53776 23.11 4.49219 23.4746 4.49219C23.9349 4.49219 24.3473 4.57194 24.7119 4.73145C25.0765 4.88639 25.3864 5.1097 25.6416 5.40137C25.9014 5.69303 26.0996 6.04395 26.2363 6.4541C26.373 6.86426 26.4414 7.32227 26.4414 7.82812C26.4414 8.30664 26.3753 8.74642 26.2432 9.14746C26.1156 9.5485 25.9219 9.89941 25.6621 10.2002C25.4023 10.4964 25.0742 10.7266 24.6777 10.8906C24.2858 11.0547 23.8232 11.1367 23.29 11.1367C22.889 11.1367 22.5085 11.082 22.1484 10.9727C21.793 10.8587 21.474 10.6878 21.1914 10.46C20.9134 10.2275 20.6855 9.94043 20.5078 9.59863C20.3346 9.25228 20.2253 8.84668 20.1797 8.38184H21.3828C21.4375 8.75553 21.5469 9.06999 21.7109 9.3252C21.875 9.5804 22.0892 9.77409 22.3535 9.90625C22.6224 10.0339 22.9346 10.0977 23.29 10.0977C23.5908 10.0977 23.8574 10.0452 24.0898 9.94043C24.3223 9.83561 24.5182 9.68522 24.6777 9.48926C24.8372 9.29329 24.958 9.05632 25.04 8.77832C25.1266 8.50033 25.1699 8.18815 25.1699 7.8418C25.1699 7.52734 25.1266 7.23568 25.04 6.9668C24.9535 6.69792 24.8236 6.46322 24.6504 6.2627C24.4818 6.06217 24.2744 5.90723 24.0283 5.79785C23.7822 5.68392 23.4997 5.62695 23.1807 5.62695C22.7568 5.62695 22.4355 5.68392 22.2168 5.79785C22.0026 5.91178 21.7816 6.06673 21.5537 6.2627ZM29.8389 9.6875L31.7393 3.60352H32.5732L32.4092 4.81348L30.4746 11H29.6611L29.8389 9.6875ZM28.5605 3.60352L30.1807 9.75586L30.2969 11H29.4424L27.2959 3.60352H28.5605ZM34.3916 9.70801L35.9365 3.60352H37.1943L35.0479 11H34.2002L34.3916 9.70801ZM32.7578 3.60352L34.6172 9.58496L34.8291 11H34.0225L32.0332 4.7998L31.8691 3.60352H32.7578ZM38.1582 7.38379V7.22656C38.1582 6.69336 38.2357 6.19889 38.3906 5.74316C38.5456 5.28288 38.7689 4.88411 39.0605 4.54688C39.3522 4.20508 39.7054 3.94076 40.1201 3.75391C40.5348 3.5625 40.9997 3.4668 41.5146 3.4668C42.0342 3.4668 42.5013 3.5625 42.916 3.75391C43.3353 3.94076 43.6908 4.20508 43.9824 4.54688C44.2786 4.88411 44.5042 5.28288 44.6592 5.74316C44.8141 6.19889 44.8916 6.69336 44.8916 7.22656V7.38379C44.8916 7.91699 44.8141 8.41146 44.6592 8.86719C44.5042 9.32292 44.2786 9.72168 43.9824 10.0635C43.6908 10.4007 43.3376 10.665 42.9229 10.8564C42.5127 11.0433 42.0479 11.1367 41.5283 11.1367C41.0088 11.1367 40.5417 11.0433 40.127 10.8564C39.7122 10.665 39.3568 10.4007 39.0605 10.0635C38.7689 9.72168 38.5456 9.32292 38.3906 8.86719C38.2357 8.41146 38.1582 7.91699 38.1582 7.38379ZM39.4229 7.22656V7.38379C39.4229 7.75293 39.4661 8.10156 39.5527 8.42969C39.6393 8.75326 39.7692 9.04036 39.9424 9.29102C40.1201 9.54167 40.3411 9.73991 40.6055 9.88574C40.8698 10.027 41.1774 10.0977 41.5283 10.0977C41.8747 10.0977 42.1777 10.027 42.4375 9.88574C42.7018 9.73991 42.9206 9.54167 43.0938 9.29102C43.2669 9.04036 43.3968 8.75326 43.4834 8.42969C43.5745 8.10156 43.6201 7.75293 43.6201 7.38379V7.22656C43.6201 6.86198 43.5745 6.5179 43.4834 6.19434C43.3968 5.86621 43.2646 5.57682 43.0869 5.32617C42.9137 5.07096 42.695 4.87044 42.4307 4.72461C42.1709 4.57878 41.8656 4.50586 41.5146 4.50586C41.1683 4.50586 40.863 4.57878 40.5986 4.72461C40.3389 4.87044 40.1201 5.07096 39.9424 5.32617C39.7692 5.57682 39.6393 5.86621 39.5527 6.19434C39.4661 6.5179 39.4229 6.86198 39.4229 7.22656ZM47.7422 4.76562V11H46.4775V3.60352H47.708L47.7422 4.76562ZM50.0527 3.5625L50.0459 4.73828C49.9411 4.71549 49.8408 4.70182 49.7451 4.69727C49.654 4.68815 49.5492 4.68359 49.4307 4.68359C49.139 4.68359 48.8815 4.72917 48.6582 4.82031C48.4349 4.91146 48.2458 5.03906 48.0908 5.20312C47.9359 5.36719 47.8128 5.56315 47.7217 5.79102C47.6351 6.01432 47.5781 6.26042 47.5508 6.5293L47.1953 6.73438C47.1953 6.28776 47.2386 5.86849 47.3252 5.47656C47.4163 5.08464 47.5553 4.73828 47.7422 4.4375C47.929 4.13216 48.166 3.89518 48.4531 3.72656C48.7448 3.55339 49.0911 3.4668 49.4922 3.4668C49.5833 3.4668 49.6882 3.47819 49.8066 3.50098C49.9251 3.51921 50.0072 3.53971 50.0527 3.5625ZM52.4932 0.5V11H51.2217V0.5H52.4932ZM57.0117 3.60352L53.7852 7.05566L51.9805 8.92871L51.8779 7.58203L53.1699 6.03711L55.4668 3.60352H57.0117ZM55.8564 11L53.2178 7.47266L53.874 6.34473L57.3467 11H55.8564ZM57.9824 7.38379V7.22656C57.9824 6.69336 58.0599 6.19889 58.2148 5.74316C58.3698 5.28288 58.5931 4.88411 58.8848 4.54688C59.1764 4.20508 59.5296 3.94076 59.9443 3.75391C60.359 3.5625 60.8239 3.4668 61.3389 3.4668C61.8584 3.4668 62.3255 3.5625 62.7402 3.75391C63.1595 3.94076 63.515 4.20508 63.8066 4.54688C64.1029 4.88411 64.3285 5.28288 64.4834 5.74316C64.6383 6.19889 64.7158 6.69336 64.7158 7.22656V7.38379C64.7158 7.91699 64.6383 8.41146 64.4834 8.86719C64.3285 9.32292 64.1029 9.72168 63.8066 10.0635C63.515 10.4007 63.1618 10.665 62.7471 10.8564C62.3369 11.0433 61.8721 11.1367 61.3525 11.1367C60.833 11.1367 60.3659 11.0433 59.9512 10.8564C59.5365 10.665 59.181 10.4007 58.8848 10.0635C58.5931 9.72168 58.3698 9.32292 58.2148 8.86719C58.0599 8.41146 57.9824 7.91699 57.9824 7.38379ZM59.2471 7.22656V7.38379C59.2471 7.75293 59.2904 8.10156 59.377 8.42969C59.4635 8.75326 59.5934 9.04036 59.7666 9.29102C59.9443 9.54167 60.1654 9.73991 60.4297 9.88574C60.694 10.027 61.0016 10.0977 61.3525 10.0977C61.6989 10.0977 62.002 10.027 62.2617 9.88574C62.526 9.73991 62.7448 9.54167 62.918 9.29102C63.0911 9.04036 63.221 8.75326 63.3076 8.42969C63.3988 8.10156 63.4443 7.75293 63.4443 7.38379V7.22656C63.4443 6.86198 63.3988 6.5179 63.3076 6.19434C63.221 5.86621 63.0889 5.57682 62.9111 5.32617C62.738 5.07096 62.5192 4.87044 62.2549 4.72461C61.9951 4.57878 61.6898 4.50586 61.3389 4.50586C60.9925 4.50586 60.6872 4.57878 60.4229 4.72461C60.1631 4.87044 59.9443 5.07096 59.7666 5.32617C59.5934 5.57682 59.4635 5.86621 59.377 6.19434C59.2904 6.5179 59.2471 6.86198 59.2471 7.22656ZM70.8271 9.29102V3.60352H72.0986V11H70.8887L70.8271 9.29102ZM71.0664 7.73242L71.5928 7.71875C71.5928 8.21094 71.5404 8.66667 71.4355 9.08594C71.3353 9.50065 71.1712 9.86068 70.9434 10.166C70.7155 10.4714 70.417 10.7106 70.0479 10.8838C69.6787 11.0524 69.2298 11.1367 68.7012 11.1367C68.3411 11.1367 68.0107 11.0843 67.71 10.9795C67.4137 10.8747 67.1585 10.7129 66.9443 10.4941C66.7301 10.2754 66.5638 9.99056 66.4453 9.63965C66.3314 9.28874 66.2744 8.86719 66.2744 8.375V3.60352H67.5391V8.38867C67.5391 8.72135 67.5755 8.99707 67.6484 9.21582C67.7259 9.43001 67.8285 9.60091 67.9561 9.72852C68.0882 9.85156 68.234 9.93815 68.3936 9.98828C68.5576 10.0384 68.7262 10.0635 68.8994 10.0635C69.4372 10.0635 69.8633 9.96094 70.1777 9.75586C70.4922 9.54622 70.7178 9.26595 70.8545 8.91504C70.9958 8.55957 71.0664 8.16536 71.0664 7.73242ZM77.123 3.60352V4.57422H73.124V3.60352H77.123ZM74.4775 1.80566H75.7422V9.16797C75.7422 9.41862 75.7809 9.60775 75.8584 9.73535C75.9359 9.86296 76.0361 9.94727 76.1592 9.98828C76.2822 10.0293 76.4144 10.0498 76.5557 10.0498C76.6605 10.0498 76.7699 10.0407 76.8838 10.0225C77.0023 9.99967 77.0911 9.98145 77.1504 9.96777L77.1572 11C77.057 11.0319 76.9248 11.0615 76.7607 11.0889C76.6012 11.1208 76.4076 11.1367 76.1797 11.1367C75.8698 11.1367 75.585 11.0752 75.3252 10.9521C75.0654 10.8291 74.8581 10.624 74.7031 10.3369C74.5527 10.0452 74.4775 9.65332 74.4775 9.16113V1.80566ZM89.5098 7.56152C89.4915 7.98079 89.4277 8.40234 89.3184 8.82617C89.209 9.24544 89.0449 9.63053 88.8262 9.98145C88.6074 10.3324 88.3226 10.6149 87.9717 10.8291C87.6253 11.0387 87.2061 11.1436 86.7139 11.1436C86.3994 11.1436 86.1237 11.0889 85.8867 10.9795C85.6543 10.8656 85.4629 10.7038 85.3125 10.4941C85.1667 10.2845 85.0641 10.0316 85.0049 9.73535C84.9502 9.43913 84.9411 9.10872 84.9775 8.74414L85.3262 4.95703H86.3311L85.9824 8.74414C85.9551 9.07682 85.9619 9.34798 86.0029 9.55762C86.0485 9.76725 86.1169 9.92904 86.208 10.043C86.2992 10.1523 86.4017 10.2275 86.5156 10.2686C86.6341 10.3096 86.748 10.3301 86.8574 10.3301C87.1309 10.3301 87.3747 10.2594 87.5889 10.1182C87.8031 9.97233 87.9831 9.77409 88.1289 9.52344C88.2793 9.26823 88.3955 8.97428 88.4775 8.6416C88.5596 8.30436 88.6097 7.94434 88.6279 7.56152C88.6598 6.88249 88.6279 6.25814 88.5322 5.68848C88.4411 5.11882 88.2839 4.61296 88.0605 4.1709C87.8418 3.72884 87.5547 3.35514 87.1992 3.0498C86.8438 2.74447 86.4199 2.51204 85.9277 2.35254C85.4355 2.19303 84.8727 2.11328 84.2393 2.11328C83.665 2.11328 83.1341 2.20215 82.6465 2.37988C82.1634 2.55306 81.7282 2.80371 81.3408 3.13184C80.958 3.45996 80.6276 3.85417 80.3496 4.31445C80.0762 4.77474 79.8597 5.29427 79.7002 5.87305C79.5452 6.44727 79.4541 7.06706 79.4268 7.73242C79.3949 8.41602 79.4313 9.04492 79.5361 9.61914C79.641 10.1888 79.8096 10.6969 80.042 11.1436C80.279 11.5947 80.5775 11.9753 80.9375 12.2852C81.2975 12.5996 81.7145 12.8366 82.1885 12.9961C82.6624 13.1602 83.1911 13.2422 83.7744 13.2422C84.1755 13.2422 84.5811 13.1943 84.9912 13.0986C85.4059 13.0029 85.7523 12.873 86.0303 12.709L86.29 13.4883C85.971 13.6934 85.5723 13.846 85.0938 13.9463C84.6198 14.0465 84.1709 14.0967 83.7471 14.0967C83.0544 14.0967 82.4209 14.001 81.8467 13.8096C81.277 13.6227 80.7712 13.347 80.3291 12.9824C79.8916 12.6224 79.527 12.1826 79.2354 11.6631C78.9437 11.1481 78.7295 10.5602 78.5928 9.89941C78.4561 9.23861 78.4036 8.51628 78.4355 7.73242C78.4674 6.98503 78.5791 6.28092 78.7705 5.62012C78.9665 4.95931 79.2331 4.36003 79.5703 3.82227C79.9076 3.28451 80.3086 2.82194 80.7734 2.43457C81.2428 2.04264 81.7692 1.74186 82.3525 1.53223C82.9404 1.32259 83.5785 1.21777 84.2666 1.21777C84.9684 1.21777 85.6042 1.31348 86.1738 1.50488C86.7435 1.69629 87.2425 1.97201 87.6709 2.33203C88.1038 2.69206 88.4616 3.13184 88.7441 3.65137C89.0267 4.1709 89.2318 4.75879 89.3594 5.41504C89.4915 6.07129 89.5417 6.78678 89.5098 7.56152ZM82.4893 8.14258C82.4574 8.46159 82.4574 8.74642 82.4893 8.99707C82.5212 9.24772 82.5827 9.45964 82.6738 9.63281C82.765 9.80599 82.8835 9.93815 83.0293 10.0293C83.1797 10.1159 83.3551 10.1592 83.5557 10.1592C83.6878 10.1592 83.8268 10.1273 83.9727 10.0635C84.1185 9.99512 84.262 9.8903 84.4033 9.74902C84.5446 9.60775 84.6768 9.42318 84.7998 9.19531C84.9229 8.96745 85.0254 8.69401 85.1074 8.375L85.5586 8.86719C85.4538 9.24089 85.3171 9.56901 85.1484 9.85156C84.9844 10.1341 84.7998 10.3711 84.5947 10.5625C84.3896 10.7539 84.1709 10.8997 83.9385 11C83.7106 11.0957 83.4782 11.1436 83.2412 11.1436C82.9085 11.1436 82.6169 11.0729 82.3662 10.9316C82.1156 10.7858 81.9128 10.5807 81.7578 10.3164C81.6029 10.0521 81.4935 9.73763 81.4297 9.37305C81.3704 9.00391 81.3613 8.59375 81.4023 8.14258C81.4434 7.66406 81.5277 7.22201 81.6553 6.81641C81.7829 6.41081 81.9401 6.0485 82.127 5.72949C82.3184 5.41048 82.5326 5.13932 82.7695 4.91602C83.0111 4.69271 83.2663 4.52409 83.5352 4.41016C83.804 4.29167 84.0798 4.23242 84.3623 4.23242C84.8545 4.23242 85.2419 4.30534 85.5244 4.45117C85.807 4.59245 86.0758 4.76107 86.3311 4.95703L85.75 5.63379C85.6178 5.50618 85.4447 5.3877 85.2305 5.27832C85.0163 5.16895 84.7633 5.11426 84.4717 5.11426C84.221 5.11426 83.9863 5.17806 83.7676 5.30566C83.5488 5.43327 83.3506 5.62467 83.1729 5.87988C82.9997 6.13509 82.8538 6.45182 82.7354 6.83008C82.6169 7.20378 82.5348 7.64128 82.4893 8.14258ZM95.9766 3.60352H97.125V10.8428C97.125 11.4945 96.9928 12.0505 96.7285 12.5107C96.4642 12.971 96.0951 13.3197 95.6211 13.5566C95.1517 13.7982 94.6094 13.9189 93.9941 13.9189C93.7389 13.9189 93.4382 13.8779 93.0918 13.7959C92.75 13.7184 92.4128 13.584 92.0801 13.3926C91.752 13.2057 91.4762 12.9528 91.2529 12.6338L91.916 11.8818C92.2259 12.2555 92.5495 12.5153 92.8867 12.6611C93.2285 12.807 93.5658 12.8799 93.8984 12.8799C94.2995 12.8799 94.6458 12.8047 94.9375 12.6543C95.2292 12.5039 95.4548 12.2806 95.6143 11.9844C95.7783 11.6927 95.8604 11.3327 95.8604 10.9043V5.23047L95.9766 3.60352ZM90.8838 7.38379V7.24023C90.8838 6.67513 90.9499 6.16243 91.082 5.70215C91.2188 5.2373 91.4124 4.83854 91.6631 4.50586C91.9183 4.17318 92.2259 3.91797 92.5859 3.74023C92.946 3.55794 93.3516 3.4668 93.8027 3.4668C94.2676 3.4668 94.6732 3.54883 95.0195 3.71289C95.3704 3.8724 95.6667 4.1071 95.9082 4.41699C96.1543 4.72233 96.348 5.09147 96.4893 5.52441C96.6305 5.95736 96.7285 6.44727 96.7832 6.99414V7.62305C96.7331 8.16536 96.6351 8.65299 96.4893 9.08594C96.348 9.51888 96.1543 9.88802 95.9082 10.1934C95.6667 10.4987 95.3704 10.7334 95.0195 10.8975C94.6686 11.057 94.2585 11.1367 93.7891 11.1367C93.347 11.1367 92.946 11.0433 92.5859 10.8564C92.2305 10.6696 91.9251 10.4076 91.6699 10.0703C91.4147 9.73307 91.2188 9.33659 91.082 8.88086C90.9499 8.42057 90.8838 7.92155 90.8838 7.38379ZM92.1484 7.24023V7.38379C92.1484 7.75293 92.1849 8.09928 92.2578 8.42285C92.3353 8.74642 92.4515 9.03125 92.6064 9.27734C92.766 9.52344 92.9688 9.71712 93.2148 9.8584C93.4609 9.99512 93.7549 10.0635 94.0967 10.0635C94.516 10.0635 94.8623 9.97461 95.1357 9.79688C95.4092 9.61914 95.6257 9.38444 95.7852 9.09277C95.9492 8.80111 96.0768 8.48438 96.168 8.14258V6.49512C96.1178 6.24447 96.0404 6.00293 95.9355 5.77051C95.8353 5.53353 95.7031 5.32389 95.5391 5.1416C95.3796 4.95475 95.1813 4.80664 94.9443 4.69727C94.7074 4.58789 94.4294 4.5332 94.1104 4.5332C93.764 4.5332 93.4655 4.60612 93.2148 4.75195C92.9688 4.89323 92.766 5.08919 92.6064 5.33984C92.4515 5.58594 92.3353 5.87305 92.2578 6.20117C92.1849 6.52474 92.1484 6.87109 92.1484 7.24023ZM98.7109 7.38379V7.22656C98.7109 6.69336 98.7884 6.19889 98.9434 5.74316C99.0983 5.28288 99.3216 4.88411 99.6133 4.54688C99.9049 4.20508 100.258 3.94076 100.673 3.75391C101.088 3.5625 101.552 3.4668 102.067 3.4668C102.587 3.4668 103.054 3.5625 103.469 3.75391C103.888 3.94076 104.243 4.20508 104.535 4.54688C104.831 4.88411 105.057 5.28288 105.212 5.74316C105.367 6.19889 105.444 6.69336 105.444 7.22656V7.38379C105.444 7.91699 105.367 8.41146 105.212 8.86719C105.057 9.32292 104.831 9.72168 104.535 10.0635C104.243 10.4007 103.89 10.665 103.476 10.8564C103.065 11.0433 102.601 11.1367 102.081 11.1367C101.562 11.1367 101.094 11.0433 100.68 10.8564C100.265 10.665 99.9095 10.4007 99.6133 10.0635C99.3216 9.72168 99.0983 9.32292 98.9434 8.86719C98.7884 8.41146 98.7109 7.91699 98.7109 7.38379ZM99.9756 7.22656V7.38379C99.9756 7.75293 100.019 8.10156 100.105 8.42969C100.192 8.75326 100.322 9.04036 100.495 9.29102C100.673 9.54167 100.894 9.73991 101.158 9.88574C101.423 10.027 101.73 10.0977 102.081 10.0977C102.427 10.0977 102.73 10.027 102.99 9.88574C103.255 9.73991 103.473 9.54167 103.646 9.29102C103.82 9.04036 103.95 8.75326 104.036 8.42969C104.127 8.10156 104.173 7.75293 104.173 7.38379V7.22656C104.173 6.86198 104.127 6.5179 104.036 6.19434C103.95 5.86621 103.817 5.57682 103.64 5.32617C103.466 5.07096 103.248 4.87044 102.983 4.72461C102.724 4.57878 102.418 4.50586 102.067 4.50586C101.721 4.50586 101.416 4.57878 101.151 4.72461C100.892 4.87044 100.673 5.07096 100.495 5.32617C100.322 5.57682 100.192 5.86621 100.105 6.19434C100.019 6.5179 99.9756 6.86198 99.9756 7.22656ZM106.695 7.38379V7.22656C106.695 6.69336 106.773 6.19889 106.928 5.74316C107.083 5.28288 107.306 4.88411 107.598 4.54688C107.889 4.20508 108.243 3.94076 108.657 3.75391C109.072 3.5625 109.537 3.4668 110.052 3.4668C110.571 3.4668 111.038 3.5625 111.453 3.75391C111.872 3.94076 112.228 4.20508 112.52 4.54688C112.816 4.88411 113.041 5.28288 113.196 5.74316C113.351 6.19889 113.429 6.69336 113.429 7.22656V7.38379C113.429 7.91699 113.351 8.41146 113.196 8.86719C113.041 9.32292 112.816 9.72168 112.52 10.0635C112.228 10.4007 111.875 10.665 111.46 10.8564C111.05 11.0433 110.585 11.1367 110.065 11.1367C109.546 11.1367 109.079 11.0433 108.664 10.8564C108.249 10.665 107.894 10.4007 107.598 10.0635C107.306 9.72168 107.083 9.32292 106.928 8.86719C106.773 8.41146 106.695 7.91699 106.695 7.38379ZM107.96 7.22656V7.38379C107.96 7.75293 108.003 8.10156 108.09 8.42969C108.176 8.75326 108.306 9.04036 108.479 9.29102C108.657 9.54167 108.878 9.73991 109.143 9.88574C109.407 10.027 109.715 10.0977 110.065 10.0977C110.412 10.0977 110.715 10.027 110.975 9.88574C111.239 9.73991 111.458 9.54167 111.631 9.29102C111.804 9.04036 111.934 8.75326 112.021 8.42969C112.112 8.10156 112.157 7.75293 112.157 7.38379V7.22656C112.157 6.86198 112.112 6.5179 112.021 6.19434C111.934 5.86621 111.802 5.57682 111.624 5.32617C111.451 5.07096 111.232 4.87044 110.968 4.72461C110.708 4.57878 110.403 4.50586 110.052 4.50586C109.705 4.50586 109.4 4.57878 109.136 4.72461C108.876 4.87044 108.657 5.07096 108.479 5.32617C108.306 5.57682 108.176 5.86621 108.09 6.19434C108.003 6.5179 107.96 6.86198 107.96 7.22656ZM119.807 3.60352H120.955V10.8428C120.955 11.4945 120.823 12.0505 120.559 12.5107C120.294 12.971 119.925 13.3197 119.451 13.5566C118.982 13.7982 118.439 13.9189 117.824 13.9189C117.569 13.9189 117.268 13.8779 116.922 13.7959C116.58 13.7184 116.243 13.584 115.91 13.3926C115.582 13.2057 115.306 12.9528 115.083 12.6338L115.746 11.8818C116.056 12.2555 116.38 12.5153 116.717 12.6611C117.059 12.807 117.396 12.8799 117.729 12.8799C118.13 12.8799 118.476 12.8047 118.768 12.6543C119.059 12.5039 119.285 12.2806 119.444 11.9844C119.608 11.6927 119.69 11.3327 119.69 10.9043V5.23047L119.807 3.60352ZM114.714 7.38379V7.24023C114.714 6.67513 114.78 6.16243 114.912 5.70215C115.049 5.2373 115.243 4.83854 115.493 4.50586C115.748 4.17318 116.056 3.91797 116.416 3.74023C116.776 3.55794 117.182 3.4668 117.633 3.4668C118.098 3.4668 118.503 3.54883 118.85 3.71289C119.201 3.8724 119.497 4.1071 119.738 4.41699C119.984 4.72233 120.178 5.09147 120.319 5.52441C120.461 5.95736 120.559 6.44727 120.613 6.99414V7.62305C120.563 8.16536 120.465 8.65299 120.319 9.08594C120.178 9.51888 119.984 9.88802 119.738 10.1934C119.497 10.4987 119.201 10.7334 118.85 10.8975C118.499 11.057 118.089 11.1367 117.619 11.1367C117.177 11.1367 116.776 11.0433 116.416 10.8564C116.061 10.6696 115.755 10.4076 115.5 10.0703C115.245 9.73307 115.049 9.33659 114.912 8.88086C114.78 8.42057 114.714 7.92155 114.714 7.38379ZM115.979 7.24023V7.38379C115.979 7.75293 116.015 8.09928 116.088 8.42285C116.165 8.74642 116.282 9.03125 116.437 9.27734C116.596 9.52344 116.799 9.71712 117.045 9.8584C117.291 9.99512 117.585 10.0635 117.927 10.0635C118.346 10.0635 118.692 9.97461 118.966 9.79688C119.239 9.61914 119.456 9.38444 119.615 9.09277C119.779 8.80111 119.907 8.48438 119.998 8.14258V6.49512C119.948 6.24447 119.87 6.00293 119.766 5.77051C119.665 5.53353 119.533 5.32389 119.369 5.1416C119.21 4.95475 119.011 4.80664 118.774 4.69727C118.537 4.58789 118.259 4.5332 117.94 4.5332C117.594 4.5332 117.296 4.60612 117.045 4.75195C116.799 4.89323 116.596 5.08919 116.437 5.33984C116.282 5.58594 116.165 5.87305 116.088 6.20117C116.015 6.52474 115.979 6.87109 115.979 7.24023ZM124.25 0.5V11H122.979V0.5H124.25ZM129.35 11.1367C128.835 11.1367 128.368 11.0501 127.948 10.877C127.534 10.6992 127.176 10.4508 126.875 10.1318C126.579 9.81283 126.351 9.43457 126.191 8.99707C126.032 8.55957 125.952 8.08105 125.952 7.56152V7.27441C125.952 6.67285 126.041 6.13737 126.219 5.66797C126.396 5.19401 126.638 4.79297 126.943 4.46484C127.249 4.13672 127.595 3.88835 127.982 3.71973C128.37 3.55111 128.771 3.4668 129.186 3.4668C129.714 3.4668 130.17 3.55794 130.553 3.74023C130.94 3.92253 131.257 4.17773 131.503 4.50586C131.749 4.82943 131.931 5.21224 132.05 5.6543C132.168 6.0918 132.228 6.57031 132.228 7.08984V7.65723H126.704V6.625H130.963V6.5293C130.945 6.20117 130.876 5.88216 130.758 5.57227C130.644 5.26237 130.462 5.00716 130.211 4.80664C129.96 4.60612 129.618 4.50586 129.186 4.50586C128.898 4.50586 128.634 4.56738 128.393 4.69043C128.151 4.80892 127.944 4.98665 127.771 5.22363C127.597 5.46061 127.463 5.75 127.367 6.0918C127.271 6.43359 127.224 6.8278 127.224 7.27441V7.56152C127.224 7.91243 127.271 8.24284 127.367 8.55273C127.467 8.85807 127.611 9.12695 127.798 9.35938C127.989 9.5918 128.219 9.77409 128.488 9.90625C128.762 10.0384 129.072 10.1045 129.418 10.1045C129.865 10.1045 130.243 10.0133 130.553 9.83105C130.863 9.64876 131.134 9.40495 131.366 9.09961L132.132 9.70801C131.972 9.94954 131.77 10.1797 131.523 10.3984C131.277 10.6172 130.974 10.7949 130.614 10.9316C130.259 11.0684 129.837 11.1367 129.35 11.1367ZM138.496 3.60352H139.645V10.8428C139.645 11.4945 139.512 12.0505 139.248 12.5107C138.984 12.971 138.615 13.3197 138.141 13.5566C137.671 13.7982 137.129 13.9189 136.514 13.9189C136.258 13.9189 135.958 13.8779 135.611 13.7959C135.27 13.7184 134.932 13.584 134.6 13.3926C134.271 13.2057 133.996 12.9528 133.772 12.6338L134.436 11.8818C134.745 12.2555 135.069 12.5153 135.406 12.6611C135.748 12.807 136.085 12.8799 136.418 12.8799C136.819 12.8799 137.165 12.8047 137.457 12.6543C137.749 12.5039 137.974 12.2806 138.134 11.9844C138.298 11.6927 138.38 11.3327 138.38 10.9043V5.23047L138.496 3.60352ZM133.403 7.38379V7.24023C133.403 6.67513 133.469 6.16243 133.602 5.70215C133.738 5.2373 133.932 4.83854 134.183 4.50586C134.438 4.17318 134.745 3.91797 135.105 3.74023C135.465 3.55794 135.871 3.4668 136.322 3.4668C136.787 3.4668 137.193 3.54883 137.539 3.71289C137.89 3.8724 138.186 4.1071 138.428 4.41699C138.674 4.72233 138.868 5.09147 139.009 5.52441C139.15 5.95736 139.248 6.44727 139.303 6.99414V7.62305C139.253 8.16536 139.155 8.65299 139.009 9.08594C138.868 9.51888 138.674 9.88802 138.428 10.1934C138.186 10.4987 137.89 10.7334 137.539 10.8975C137.188 11.057 136.778 11.1367 136.309 11.1367C135.867 11.1367 135.465 11.0433 135.105 10.8564C134.75 10.6696 134.445 10.4076 134.189 10.0703C133.934 9.73307 133.738 9.33659 133.602 8.88086C133.469 8.42057 133.403 7.92155 133.403 7.38379ZM134.668 7.24023V7.38379C134.668 7.75293 134.704 8.09928 134.777 8.42285C134.855 8.74642 134.971 9.03125 135.126 9.27734C135.285 9.52344 135.488 9.71712 135.734 9.8584C135.98 9.99512 136.274 10.0635 136.616 10.0635C137.035 10.0635 137.382 9.97461 137.655 9.79688C137.929 9.61914 138.145 9.38444 138.305 9.09277C138.469 8.80111 138.596 8.48438 138.688 8.14258V6.49512C138.637 6.24447 138.56 6.00293 138.455 5.77051C138.355 5.53353 138.223 5.32389 138.059 5.1416C137.899 4.95475 137.701 4.80664 137.464 4.69727C137.227 4.58789 136.949 4.5332 136.63 4.5332C136.284 4.5332 135.985 4.60612 135.734 4.75195C135.488 4.89323 135.285 5.08919 135.126 5.33984C134.971 5.58594 134.855 5.87305 134.777 6.20117C134.704 6.52474 134.668 6.87109 134.668 7.24023ZM142.83 4.76562V11H141.565V3.60352H142.796L142.83 4.76562ZM145.141 3.5625L145.134 4.73828C145.029 4.71549 144.929 4.70182 144.833 4.69727C144.742 4.68815 144.637 4.68359 144.519 4.68359C144.227 4.68359 143.969 4.72917 143.746 4.82031C143.523 4.91146 143.334 5.03906 143.179 5.20312C143.024 5.36719 142.901 5.56315 142.81 5.79102C142.723 6.01432 142.666 6.26042 142.639 6.5293L142.283 6.73438C142.283 6.28776 142.326 5.86849 142.413 5.47656C142.504 5.08464 142.643 4.73828 142.83 4.4375C143.017 4.13216 143.254 3.89518 143.541 3.72656C143.833 3.55339 144.179 3.4668 144.58 3.4668C144.671 3.4668 144.776 3.47819 144.895 3.50098C145.013 3.51921 145.095 3.53971 145.141 3.5625ZM145.838 7.38379V7.22656C145.838 6.69336 145.915 6.19889 146.07 5.74316C146.225 5.28288 146.449 4.88411 146.74 4.54688C147.032 4.20508 147.385 3.94076 147.8 3.75391C148.215 3.5625 148.679 3.4668 149.194 3.4668C149.714 3.4668 150.181 3.5625 150.596 3.75391C151.015 3.94076 151.37 4.20508 151.662 4.54688C151.958 4.88411 152.184 5.28288 152.339 5.74316C152.494 6.19889 152.571 6.69336 152.571 7.22656V7.38379C152.571 7.91699 152.494 8.41146 152.339 8.86719C152.184 9.32292 151.958 9.72168 151.662 10.0635C151.37 10.4007 151.017 10.665 150.603 10.8564C150.192 11.0433 149.728 11.1367 149.208 11.1367C148.688 11.1367 148.221 11.0433 147.807 10.8564C147.392 10.665 147.036 10.4007 146.74 10.0635C146.449 9.72168 146.225 9.32292 146.07 8.86719C145.915 8.41146 145.838 7.91699 145.838 7.38379ZM147.103 7.22656V7.38379C147.103 7.75293 147.146 8.10156 147.232 8.42969C147.319 8.75326 147.449 9.04036 147.622 9.29102C147.8 9.54167 148.021 9.73991 148.285 9.88574C148.549 10.027 148.857 10.0977 149.208 10.0977C149.554 10.0977 149.857 10.027 150.117 9.88574C150.382 9.73991 150.6 9.54167 150.773 9.29102C150.947 9.04036 151.076 8.75326 151.163 8.42969C151.254 8.10156 151.3 7.75293 151.3 7.38379V7.22656C151.3 6.86198 151.254 6.5179 151.163 6.19434C151.076 5.86621 150.944 5.57682 150.767 5.32617C150.593 5.07096 150.375 4.87044 150.11 4.72461C149.851 4.57878 149.545 4.50586 149.194 4.50586C148.848 4.50586 148.543 4.57878 148.278 4.72461C148.019 4.87044 147.8 5.07096 147.622 5.32617C147.449 5.57682 147.319 5.86621 147.232 6.19434C147.146 6.5179 147.103 6.86198 147.103 7.22656ZM158.683 9.29102V3.60352H159.954V11H158.744L158.683 9.29102ZM158.922 7.73242L159.448 7.71875C159.448 8.21094 159.396 8.66667 159.291 9.08594C159.191 9.50065 159.027 9.86068 158.799 10.166C158.571 10.4714 158.272 10.7106 157.903 10.8838C157.534 11.0524 157.085 11.1367 156.557 11.1367C156.197 11.1367 155.866 11.0843 155.565 10.9795C155.269 10.8747 155.014 10.7129 154.8 10.4941C154.586 10.2754 154.419 9.99056 154.301 9.63965C154.187 9.28874 154.13 8.86719 154.13 8.375V3.60352H155.395V8.38867C155.395 8.72135 155.431 8.99707 155.504 9.21582C155.581 9.43001 155.684 9.60091 155.812 9.72852C155.944 9.85156 156.09 9.93815 156.249 9.98828C156.413 10.0384 156.582 10.0635 156.755 10.0635C157.293 10.0635 157.719 9.96094 158.033 9.75586C158.348 9.54622 158.573 9.26595 158.71 8.91504C158.851 8.55957 158.922 8.16536 158.922 7.73242ZM163.146 5.02539V13.8438H161.875V3.60352H163.037L163.146 5.02539ZM168.13 7.24023V7.38379C168.13 7.92155 168.066 8.42057 167.938 8.88086C167.811 9.33659 167.624 9.73307 167.378 10.0703C167.136 10.4076 166.838 10.6696 166.482 10.8564C166.127 11.0433 165.719 11.1367 165.259 11.1367C164.789 11.1367 164.375 11.0592 164.015 10.9043C163.655 10.7493 163.349 10.5238 163.099 10.2275C162.848 9.93132 162.647 9.57585 162.497 9.16113C162.351 8.74642 162.251 8.2793 162.196 7.75977V6.99414C162.251 6.44727 162.354 5.95736 162.504 5.52441C162.654 5.09147 162.853 4.72233 163.099 4.41699C163.349 4.1071 163.652 3.8724 164.008 3.71289C164.363 3.54883 164.773 3.4668 165.238 3.4668C165.703 3.4668 166.116 3.55794 166.476 3.74023C166.836 3.91797 167.139 4.17318 167.385 4.50586C167.631 4.83854 167.815 5.2373 167.938 5.70215C168.066 6.16243 168.13 6.67513 168.13 7.24023ZM166.858 7.38379V7.24023C166.858 6.87109 166.82 6.52474 166.742 6.20117C166.665 5.87305 166.544 5.58594 166.38 5.33984C166.22 5.08919 166.015 4.89323 165.765 4.75195C165.514 4.60612 165.215 4.5332 164.869 4.5332C164.55 4.5332 164.272 4.58789 164.035 4.69727C163.803 4.80664 163.604 4.95475 163.44 5.1416C163.276 5.32389 163.142 5.53353 163.037 5.77051C162.937 6.00293 162.862 6.24447 162.812 6.49512V8.26562C162.903 8.58464 163.03 8.88542 163.194 9.16797C163.358 9.44596 163.577 9.67155 163.851 9.84473C164.124 10.0133 164.468 10.0977 164.883 10.0977C165.225 10.0977 165.519 10.027 165.765 9.88574C166.015 9.73991 166.22 9.54167 166.38 9.29102C166.544 9.04036 166.665 8.75326 166.742 8.42969C166.82 8.10156 166.858 7.75293 166.858 7.38379ZM174.05 9.03809C174.05 8.85579 174.009 8.68717 173.927 8.53223C173.849 8.37272 173.688 8.22917 173.441 8.10156C173.2 7.9694 172.835 7.85547 172.348 7.75977C171.938 7.67318 171.566 7.57064 171.233 7.45215C170.905 7.33366 170.625 7.1901 170.393 7.02148C170.165 6.85286 169.989 6.65462 169.866 6.42676C169.743 6.19889 169.682 5.93229 169.682 5.62695C169.682 5.33529 169.745 5.05957 169.873 4.7998C170.005 4.54004 170.19 4.3099 170.427 4.10938C170.668 3.90885 170.958 3.75163 171.295 3.6377C171.632 3.52376 172.008 3.4668 172.423 3.4668C173.015 3.4668 173.521 3.57161 173.94 3.78125C174.36 3.99089 174.681 4.27116 174.904 4.62207C175.128 4.96842 175.239 5.35352 175.239 5.77734H173.975C173.975 5.57227 173.913 5.37402 173.79 5.18262C173.672 4.98665 173.496 4.82487 173.264 4.69727C173.036 4.56966 172.756 4.50586 172.423 4.50586C172.072 4.50586 171.787 4.56055 171.568 4.66992C171.354 4.77474 171.197 4.90918 171.097 5.07324C171.001 5.2373 170.953 5.41048 170.953 5.59277C170.953 5.72949 170.976 5.85254 171.021 5.96191C171.072 6.06673 171.158 6.16471 171.281 6.25586C171.404 6.34245 171.577 6.42448 171.801 6.50195C172.024 6.57943 172.309 6.6569 172.655 6.73438C173.261 6.87109 173.76 7.03516 174.152 7.22656C174.544 7.41797 174.836 7.65267 175.027 7.93066C175.219 8.20866 175.314 8.5459 175.314 8.94238C175.314 9.26595 175.246 9.56217 175.109 9.83105C174.977 10.0999 174.784 10.3324 174.528 10.5283C174.278 10.7197 173.977 10.8701 173.626 10.9795C173.28 11.0843 172.89 11.1367 172.457 11.1367C171.805 11.1367 171.254 11.0205 170.803 10.7881C170.352 10.5557 170.01 10.2549 169.777 9.88574C169.545 9.5166 169.429 9.12695 169.429 8.7168H170.7C170.718 9.06315 170.819 9.33887 171.001 9.54395C171.183 9.74447 171.407 9.88802 171.671 9.97461C171.935 10.0566 172.197 10.0977 172.457 10.0977C172.803 10.0977 173.093 10.0521 173.325 9.96094C173.562 9.86979 173.742 9.74447 173.865 9.58496C173.988 9.42546 174.05 9.24316 174.05 9.03809ZM176.996 10.3301C176.996 10.1159 177.062 9.93587 177.194 9.79004C177.331 9.63965 177.527 9.56445 177.782 9.56445C178.037 9.56445 178.231 9.63965 178.363 9.79004C178.5 9.93587 178.568 10.1159 178.568 10.3301C178.568 10.5397 178.5 10.7174 178.363 10.8633C178.231 11.0091 178.037 11.082 177.782 11.082C177.527 11.082 177.331 11.0091 177.194 10.8633C177.062 10.7174 176.996 10.5397 176.996 10.3301ZM183.627 10.0977C183.928 10.0977 184.206 10.0361 184.461 9.91309C184.716 9.79004 184.926 9.62142 185.09 9.40723C185.254 9.18848 185.347 8.9401 185.37 8.66211H186.573C186.55 9.09961 186.402 9.50749 186.129 9.88574C185.86 10.2594 185.507 10.5625 185.069 10.7949C184.632 11.0228 184.151 11.1367 183.627 11.1367C183.071 11.1367 182.586 11.0387 182.171 10.8428C181.761 10.6468 181.419 10.3779 181.146 10.0361C180.877 9.69434 180.674 9.30241 180.537 8.86035C180.405 8.41374 180.339 7.94206 180.339 7.44531V7.1582C180.339 6.66146 180.405 6.19206 180.537 5.75C180.674 5.30339 180.877 4.90918 181.146 4.56738C181.419 4.22559 181.761 3.95671 182.171 3.76074C182.586 3.56478 183.071 3.4668 183.627 3.4668C184.206 3.4668 184.712 3.58529 185.145 3.82227C185.577 4.05469 185.917 4.3737 186.163 4.7793C186.414 5.18034 186.55 5.63607 186.573 6.14648H185.37C185.347 5.84115 185.261 5.56543 185.11 5.31934C184.965 5.07324 184.764 4.87728 184.509 4.73145C184.258 4.58105 183.964 4.50586 183.627 4.50586C183.24 4.50586 182.914 4.58333 182.649 4.73828C182.39 4.88867 182.182 5.09375 182.027 5.35352C181.877 5.60872 181.768 5.89355 181.699 6.20801C181.635 6.5179 181.604 6.83464 181.604 7.1582V7.44531C181.604 7.76888 181.635 8.08789 181.699 8.40234C181.763 8.7168 181.87 9.00163 182.021 9.25684C182.175 9.51204 182.383 9.71712 182.643 9.87207C182.907 10.0225 183.235 10.0977 183.627 10.0977ZM187.66 7.38379V7.22656C187.66 6.69336 187.738 6.19889 187.893 5.74316C188.048 5.28288 188.271 4.88411 188.562 4.54688C188.854 4.20508 189.207 3.94076 189.622 3.75391C190.037 3.5625 190.502 3.4668 191.017 3.4668C191.536 3.4668 192.003 3.5625 192.418 3.75391C192.837 3.94076 193.193 4.20508 193.484 4.54688C193.781 4.88411 194.006 5.28288 194.161 5.74316C194.316 6.19889 194.394 6.69336 194.394 7.22656V7.38379C194.394 7.91699 194.316 8.41146 194.161 8.86719C194.006 9.32292 193.781 9.72168 193.484 10.0635C193.193 10.4007 192.84 10.665 192.425 10.8564C192.015 11.0433 191.55 11.1367 191.03 11.1367C190.511 11.1367 190.044 11.0433 189.629 10.8564C189.214 10.665 188.859 10.4007 188.562 10.0635C188.271 9.72168 188.048 9.32292 187.893 8.86719C187.738 8.41146 187.66 7.91699 187.66 7.38379ZM188.925 7.22656V7.38379C188.925 7.75293 188.968 8.10156 189.055 8.42969C189.141 8.75326 189.271 9.04036 189.444 9.29102C189.622 9.54167 189.843 9.73991 190.107 9.88574C190.372 10.027 190.679 10.0977 191.03 10.0977C191.377 10.0977 191.68 10.027 191.939 9.88574C192.204 9.73991 192.423 9.54167 192.596 9.29102C192.769 9.04036 192.899 8.75326 192.985 8.42969C193.076 8.10156 193.122 7.75293 193.122 7.38379V7.22656C193.122 6.86198 193.076 6.5179 192.985 6.19434C192.899 5.86621 192.767 5.57682 192.589 5.32617C192.416 5.07096 192.197 4.87044 191.933 4.72461C191.673 4.57878 191.368 4.50586 191.017 4.50586C190.67 4.50586 190.365 4.57878 190.101 4.72461C189.841 4.87044 189.622 5.07096 189.444 5.32617C189.271 5.57682 189.141 5.86621 189.055 6.19434C188.968 6.5179 188.925 6.86198 188.925 7.22656ZM197.237 5.07324V11H195.966V3.60352H197.169L197.237 5.07324ZM196.978 7.02148L196.39 7.00098C196.394 6.49512 196.46 6.02799 196.588 5.59961C196.715 5.16667 196.905 4.79069 197.155 4.47168C197.406 4.15267 197.718 3.90658 198.092 3.7334C198.465 3.55566 198.898 3.4668 199.391 3.4668C199.737 3.4668 200.056 3.51693 200.348 3.61719C200.639 3.71289 200.892 3.86556 201.106 4.0752C201.321 4.28483 201.487 4.55371 201.605 4.88184C201.724 5.20996 201.783 5.60645 201.783 6.07129V11H200.519V6.13281C200.519 5.74544 200.452 5.43555 200.32 5.20312C200.193 4.9707 200.01 4.80208 199.773 4.69727C199.536 4.58789 199.258 4.5332 198.939 4.5332C198.566 4.5332 198.254 4.59928 198.003 4.73145C197.752 4.86361 197.552 5.0459 197.401 5.27832C197.251 5.51074 197.142 5.77734 197.073 6.07812C197.009 6.37435 196.978 6.6888 196.978 7.02148ZM201.77 6.32422L200.922 6.58398C200.926 6.17839 200.993 5.78874 201.12 5.41504C201.252 5.04134 201.441 4.70866 201.688 4.41699C201.938 4.12533 202.246 3.89518 202.61 3.72656C202.975 3.55339 203.392 3.4668 203.861 3.4668C204.258 3.4668 204.609 3.51921 204.914 3.62402C205.224 3.72884 205.484 3.89062 205.693 4.10938C205.908 4.32357 206.069 4.59928 206.179 4.93652C206.288 5.27376 206.343 5.6748 206.343 6.13965V11H205.071V6.12598C205.071 5.71126 205.005 5.38997 204.873 5.16211C204.745 4.92969 204.563 4.7679 204.326 4.67676C204.094 4.58105 203.816 4.5332 203.492 4.5332C203.214 4.5332 202.968 4.58105 202.754 4.67676C202.54 4.77246 202.36 4.90462 202.214 5.07324C202.068 5.2373 201.956 5.42643 201.879 5.64062C201.806 5.85482 201.77 6.08268 201.77 6.32422Z"
          fill="white" fill-opacity="0.9"/>
</svg>
