<svg width="101" height="12" viewBox="0 0 101 12" fill="none" xmlns="http://www.w3.org/2000/svg">
    <path d="M6.65625 5.32617V6.39941H1.26953V5.32617H6.65625ZM1.47461 1.04688V11H0.155273V1.04688H1.47461ZM7.80469 1.04688V11H6.49219V1.04688H7.80469ZM14.3193 9.73535V5.92773C14.3193 5.63607 14.2601 5.38314 14.1416 5.16895C14.0277 4.9502 13.8545 4.78158 13.6221 4.66309C13.3896 4.5446 13.1025 4.48535 12.7607 4.48535C12.4417 4.48535 12.1615 4.54004 11.9199 4.64941C11.6829 4.75879 11.4961 4.90234 11.3594 5.08008C11.2272 5.25781 11.1611 5.44922 11.1611 5.6543H9.89648C9.89648 5.38997 9.96484 5.12793 10.1016 4.86816C10.2383 4.6084 10.4342 4.3737 10.6895 4.16406C10.9492 3.94987 11.2591 3.78125 11.6191 3.6582C11.9837 3.5306 12.3893 3.4668 12.8359 3.4668C13.3737 3.4668 13.8477 3.55794 14.2578 3.74023C14.6725 3.92253 14.9961 4.19824 15.2285 4.56738C15.4655 4.93197 15.584 5.38997 15.584 5.94141V9.38672C15.584 9.63281 15.6045 9.89486 15.6455 10.1729C15.6911 10.4508 15.7572 10.6901 15.8438 10.8906V11H14.5244C14.4606 10.8542 14.4105 10.6605 14.374 10.4189C14.3376 10.1729 14.3193 9.94499 14.3193 9.73535ZM14.5381 6.51562L14.5518 7.4043H13.2734C12.9134 7.4043 12.5921 7.43392 12.3096 7.49316C12.027 7.54785 11.79 7.63216 11.5986 7.74609C11.4072 7.86003 11.2614 8.00358 11.1611 8.17676C11.0609 8.34538 11.0107 8.54362 11.0107 8.77148C11.0107 9.00391 11.0632 9.21582 11.168 9.40723C11.2728 9.59863 11.43 9.7513 11.6396 9.86523C11.8538 9.97461 12.1159 10.0293 12.4258 10.0293C12.8132 10.0293 13.1549 9.94727 13.4512 9.7832C13.7474 9.61914 13.9821 9.41862 14.1553 9.18164C14.333 8.94466 14.4287 8.71452 14.4424 8.49121L14.9824 9.09961C14.9505 9.29102 14.8639 9.50293 14.7227 9.73535C14.5814 9.96777 14.3923 10.1911 14.1553 10.4053C13.9229 10.6149 13.6449 10.7904 13.3213 10.9316C13.0023 11.0684 12.6423 11.1367 12.2412 11.1367C11.7399 11.1367 11.3001 11.0387 10.9219 10.8428C10.5482 10.6468 10.2565 10.3848 10.0469 10.0566C9.8418 9.72396 9.73926 9.35254 9.73926 8.94238C9.73926 8.5459 9.81673 8.19727 9.97168 7.89648C10.1266 7.59115 10.3499 7.33822 10.6416 7.1377C10.9333 6.93262 11.2842 6.77767 11.6943 6.67285C12.1045 6.56803 12.5625 6.51562 13.0684 6.51562H14.5381ZM18.8379 4.76562V11H17.5732V3.60352H18.8037L18.8379 4.76562ZM21.1484 3.5625L21.1416 4.73828C21.0368 4.71549 20.9365 4.70182 20.8408 4.69727C20.7497 4.68815 20.6449 4.68359 20.5264 4.68359C20.2347 4.68359 19.9772 4.72917 19.7539 4.82031C19.5306 4.91146 19.3415 5.03906 19.1865 5.20312C19.0316 5.36719 18.9085 5.56315 18.8174 5.79102C18.7308 6.01432 18.6738 6.26042 18.6465 6.5293L18.291 6.73438C18.291 6.28776 18.3343 5.86849 18.4209 5.47656C18.512 5.08464 18.651 4.73828 18.8379 4.4375C19.0247 4.13216 19.2617 3.89518 19.5488 3.72656C19.8405 3.55339 20.1868 3.4668 20.5879 3.4668C20.679 3.4668 20.7839 3.47819 20.9023 3.50098C21.0208 3.51921 21.1029 3.53971 21.1484 3.5625ZM26.4053 9.73535V5.92773C26.4053 5.63607 26.346 5.38314 26.2275 5.16895C26.1136 4.9502 25.9404 4.78158 25.708 4.66309C25.4756 4.5446 25.1885 4.48535 24.8467 4.48535C24.5277 4.48535 24.2474 4.54004 24.0059 4.64941C23.7689 4.75879 23.582 4.90234 23.4453 5.08008C23.3132 5.25781 23.2471 5.44922 23.2471 5.6543H21.9824C21.9824 5.38997 22.0508 5.12793 22.1875 4.86816C22.3242 4.6084 22.5202 4.3737 22.7754 4.16406C23.0352 3.94987 23.3451 3.78125 23.7051 3.6582C24.0697 3.5306 24.4753 3.4668 24.9219 3.4668C25.4596 3.4668 25.9336 3.55794 26.3438 3.74023C26.7585 3.92253 27.082 4.19824 27.3145 4.56738C27.5514 4.93197 27.6699 5.38997 27.6699 5.94141V9.38672C27.6699 9.63281 27.6904 9.89486 27.7314 10.1729C27.777 10.4508 27.8431 10.6901 27.9297 10.8906V11H26.6104C26.5465 10.8542 26.4964 10.6605 26.46 10.4189C26.4235 10.1729 26.4053 9.94499 26.4053 9.73535ZM26.624 6.51562L26.6377 7.4043H25.3594C24.9993 7.4043 24.6781 7.43392 24.3955 7.49316C24.113 7.54785 23.876 7.63216 23.6846 7.74609C23.4932 7.86003 23.3473 8.00358 23.2471 8.17676C23.1468 8.34538 23.0967 8.54362 23.0967 8.77148C23.0967 9.00391 23.1491 9.21582 23.2539 9.40723C23.3587 9.59863 23.516 9.7513 23.7256 9.86523C23.9398 9.97461 24.2018 10.0293 24.5117 10.0293C24.8991 10.0293 25.2409 9.94727 25.5371 9.7832C25.8333 9.61914 26.068 9.41862 26.2412 9.18164C26.4189 8.94466 26.5146 8.71452 26.5283 8.49121L27.0684 9.09961C27.0365 9.29102 26.9499 9.50293 26.8086 9.73535C26.6673 9.96777 26.4782 10.1911 26.2412 10.4053C26.0088 10.6149 25.7308 10.7904 25.4072 10.9316C25.0882 11.0684 24.7282 11.1367 24.3271 11.1367C23.8258 11.1367 23.3861 11.0387 23.0078 10.8428C22.6341 10.6468 22.3424 10.3848 22.1328 10.0566C21.9277 9.72396 21.8252 9.35254 21.8252 8.94238C21.8252 8.5459 21.9027 8.19727 22.0576 7.89648C22.2126 7.59115 22.4359 7.33822 22.7275 7.1377C23.0192 6.93262 23.3701 6.77767 23.7803 6.67285C24.1904 6.56803 24.6484 6.51562 25.1543 6.51562H26.624ZM31.0332 0.5V11H29.7617V0.5H31.0332ZM37.7256 9.56445V0.5H38.9971V11H37.835L37.7256 9.56445ZM32.749 7.38379V7.24023C32.749 6.67513 32.8174 6.16243 32.9541 5.70215C33.0954 5.2373 33.2936 4.83854 33.5488 4.50586C33.8086 4.17318 34.1162 3.91797 34.4717 3.74023C34.8317 3.55794 35.2327 3.4668 35.6748 3.4668C36.1396 3.4668 36.5452 3.54883 36.8916 3.71289C37.2425 3.8724 37.5387 4.1071 37.7803 4.41699C38.0264 4.72233 38.2201 5.09147 38.3613 5.52441C38.5026 5.95736 38.6006 6.44727 38.6553 6.99414V7.62305C38.6051 8.16536 38.5072 8.65299 38.3613 9.08594C38.2201 9.51888 38.0264 9.88802 37.7803 10.1934C37.5387 10.4987 37.2425 10.7334 36.8916 10.8975C36.5407 11.057 36.1305 11.1367 35.6611 11.1367C35.2282 11.1367 34.8317 11.0433 34.4717 10.8564C34.1162 10.6696 33.8086 10.4076 33.5488 10.0703C33.2936 9.73307 33.0954 9.33659 32.9541 8.88086C32.8174 8.42057 32.749 7.92155 32.749 7.38379ZM34.0205 7.24023V7.38379C34.0205 7.75293 34.057 8.09928 34.1299 8.42285C34.2074 8.74642 34.3258 9.03125 34.4854 9.27734C34.6449 9.52344 34.8477 9.71712 35.0938 9.8584C35.3398 9.99512 35.6338 10.0635 35.9756 10.0635C36.3949 10.0635 36.7389 9.97461 37.0078 9.79688C37.2812 9.61914 37.5 9.38444 37.6641 9.09277C37.8281 8.80111 37.9557 8.48438 38.0469 8.14258V6.49512C37.9922 6.24447 37.9124 6.00293 37.8076 5.77051C37.7074 5.53353 37.5752 5.32389 37.4111 5.1416C37.2516 4.95475 37.0534 4.80664 36.8164 4.69727C36.584 4.58789 36.3083 4.5332 35.9893 4.5332C35.6429 4.5332 35.3444 4.60612 35.0938 4.75195C34.8477 4.89323 34.6449 5.08919 34.4854 5.33984C34.3258 5.58594 34.2074 5.87305 34.1299 6.20117C34.057 6.52474 34.0205 6.87109 34.0205 7.24023ZM45.9492 1.04688V11H44.6299V1.04688H45.9492ZM51.958 1.04688L47.8223 5.68848L45.498 8.10156L45.2793 6.69336L47.0293 4.76562L50.3721 1.04688H51.958ZM50.6865 11L47.002 6.14648L47.7881 5.10059L52.2588 11H50.6865ZM54.4941 4.76562V11H53.2295V3.60352H54.46L54.4941 4.76562ZM56.8047 3.5625L56.7979 4.73828C56.693 4.71549 56.5928 4.70182 56.4971 4.69727C56.4059 4.68815 56.3011 4.68359 56.1826 4.68359C55.891 4.68359 55.6335 4.72917 55.4102 4.82031C55.1868 4.91146 54.9977 5.03906 54.8428 5.20312C54.6878 5.36719 54.5648 5.56315 54.4736 5.79102C54.387 6.01432 54.3301 6.26042 54.3027 6.5293L53.9473 6.73438C53.9473 6.28776 53.9906 5.86849 54.0771 5.47656C54.1683 5.08464 54.3073 4.73828 54.4941 4.4375C54.681 4.13216 54.918 3.89518 55.2051 3.72656C55.4967 3.55339 55.8431 3.4668 56.2441 3.4668C56.3353 3.4668 56.4401 3.47819 56.5586 3.50098C56.6771 3.51921 56.7591 3.53971 56.8047 3.5625ZM59.3477 3.60352V11H58.0762V3.60352H59.3477ZM57.9805 1.6416C57.9805 1.43652 58.042 1.26335 58.165 1.12207C58.2926 0.980794 58.4795 0.910156 58.7256 0.910156C58.9671 0.910156 59.1517 0.980794 59.2793 1.12207C59.4115 1.26335 59.4775 1.43652 59.4775 1.6416C59.4775 1.83757 59.4115 2.00618 59.2793 2.14746C59.1517 2.28418 58.9671 2.35254 58.7256 2.35254C58.4795 2.35254 58.2926 2.28418 58.165 2.14746C58.042 2.00618 57.9805 1.83757 57.9805 1.6416ZM64.4473 11.1367C63.9323 11.1367 63.4652 11.0501 63.0459 10.877C62.6312 10.6992 62.2734 10.4508 61.9727 10.1318C61.6764 9.81283 61.4486 9.43457 61.2891 8.99707C61.1296 8.55957 61.0498 8.08105 61.0498 7.56152V7.27441C61.0498 6.67285 61.1387 6.13737 61.3164 5.66797C61.4941 5.19401 61.7357 4.79297 62.041 4.46484C62.3464 4.13672 62.6927 3.88835 63.0801 3.71973C63.4674 3.55111 63.8685 3.4668 64.2832 3.4668C64.8118 3.4668 65.2676 3.55794 65.6504 3.74023C66.0378 3.92253 66.3545 4.17773 66.6006 4.50586C66.8467 4.82943 67.029 5.21224 67.1475 5.6543C67.266 6.0918 67.3252 6.57031 67.3252 7.08984V7.65723H61.8018V6.625H66.0605V6.5293C66.0423 6.20117 65.974 5.88216 65.8555 5.57227C65.7415 5.26237 65.5592 5.00716 65.3086 4.80664C65.0579 4.60612 64.7161 4.50586 64.2832 4.50586C63.9961 4.50586 63.7318 4.56738 63.4902 4.69043C63.2487 4.80892 63.0413 4.98665 62.8682 5.22363C62.695 5.46061 62.5605 5.75 62.4648 6.0918C62.3691 6.43359 62.3213 6.8278 62.3213 7.27441V7.56152C62.3213 7.91243 62.3691 8.24284 62.4648 8.55273C62.5651 8.85807 62.7087 9.12695 62.8955 9.35938C63.0869 9.5918 63.3171 9.77409 63.5859 9.90625C63.8594 10.0384 64.1693 10.1045 64.5156 10.1045C64.9622 10.1045 65.3405 10.0133 65.6504 9.83105C65.9603 9.64876 66.2314 9.40495 66.4639 9.09961L67.2295 9.70801C67.07 9.94954 66.8672 10.1797 66.6211 10.3984C66.375 10.6172 66.0719 10.7949 65.7119 10.9316C65.3564 11.0684 64.9349 11.1367 64.4473 11.1367ZM68.7949 0.5H70.0664V9.56445L69.957 11H68.7949V0.5ZM75.0635 7.24023V7.38379C75.0635 7.92155 74.9997 8.42057 74.8721 8.88086C74.7445 9.33659 74.5576 9.73307 74.3115 10.0703C74.0654 10.4076 73.7646 10.6696 73.4092 10.8564C73.0537 11.0433 72.6458 11.1367 72.1855 11.1367C71.7161 11.1367 71.3037 11.057 70.9482 10.8975C70.5973 10.7334 70.3011 10.4987 70.0596 10.1934C69.818 9.88802 69.6243 9.51888 69.4785 9.08594C69.3372 8.65299 69.2393 8.16536 69.1846 7.62305V6.99414C69.2393 6.44727 69.3372 5.95736 69.4785 5.52441C69.6243 5.09147 69.818 4.72233 70.0596 4.41699C70.3011 4.1071 70.5973 3.8724 70.9482 3.71289C71.2992 3.54883 71.707 3.4668 72.1719 3.4668C72.6367 3.4668 73.0492 3.55794 73.4092 3.74023C73.7692 3.91797 74.07 4.17318 74.3115 4.50586C74.5576 4.83854 74.7445 5.2373 74.8721 5.70215C74.9997 6.16243 75.0635 6.67513 75.0635 7.24023ZM73.792 7.38379V7.24023C73.792 6.87109 73.7578 6.52474 73.6895 6.20117C73.6211 5.87305 73.5117 5.58594 73.3613 5.33984C73.2109 5.08919 73.0127 4.89323 72.7666 4.75195C72.5205 4.60612 72.2174 4.5332 71.8574 4.5332C71.5384 4.5332 71.2604 4.58789 71.0234 4.69727C70.791 4.80664 70.5928 4.95475 70.4287 5.1416C70.2646 5.32389 70.1302 5.53353 70.0254 5.77051C69.9251 6.00293 69.8499 6.24447 69.7998 6.49512V8.14258C69.8727 8.46159 69.9912 8.76921 70.1553 9.06543C70.3239 9.3571 70.5472 9.59635 70.8252 9.7832C71.1077 9.97005 71.4564 10.0635 71.8711 10.0635C72.2129 10.0635 72.5046 9.99512 72.7461 9.8584C72.9922 9.71712 73.1904 9.52344 73.3408 9.27734C73.4958 9.03125 73.6097 8.74642 73.6826 8.42285C73.7555 8.09928 73.792 7.75293 73.792 7.38379ZM78.0371 3.60352V11H76.7656V3.60352H78.0371ZM76.6699 1.6416C76.6699 1.43652 76.7314 1.26335 76.8545 1.12207C76.9821 0.980794 77.1689 0.910156 77.415 0.910156C77.6566 0.910156 77.8411 0.980794 77.9688 1.12207C78.1009 1.26335 78.167 1.43652 78.167 1.6416C78.167 1.83757 78.1009 2.00618 77.9688 2.14746C77.8411 2.28418 77.6566 2.35254 77.415 2.35254C77.1689 2.35254 76.9821 2.28418 76.8545 2.14746C76.7314 2.00618 76.6699 1.83757 76.6699 1.6416ZM84.374 9.03809C84.374 8.85579 84.333 8.68717 84.251 8.53223C84.1735 8.37272 84.0117 8.22917 83.7656 8.10156C83.5241 7.9694 83.1595 7.85547 82.6719 7.75977C82.2617 7.67318 81.8903 7.57064 81.5576 7.45215C81.2295 7.33366 80.9492 7.1901 80.7168 7.02148C80.4889 6.85286 80.3135 6.65462 80.1904 6.42676C80.0674 6.19889 80.0059 5.93229 80.0059 5.62695C80.0059 5.33529 80.0697 5.05957 80.1973 4.7998C80.3294 4.54004 80.514 4.3099 80.751 4.10938C80.9925 3.90885 81.2819 3.75163 81.6191 3.6377C81.9564 3.52376 82.3324 3.4668 82.7471 3.4668C83.3395 3.4668 83.8454 3.57161 84.2646 3.78125C84.6839 3.99089 85.0052 4.27116 85.2285 4.62207C85.4518 4.96842 85.5635 5.35352 85.5635 5.77734H84.2988C84.2988 5.57227 84.2373 5.37402 84.1143 5.18262C83.9958 4.98665 83.8203 4.82487 83.5879 4.69727C83.36 4.56966 83.0798 4.50586 82.7471 4.50586C82.3962 4.50586 82.1113 4.56055 81.8926 4.66992C81.6784 4.77474 81.5212 4.90918 81.4209 5.07324C81.3252 5.2373 81.2773 5.41048 81.2773 5.59277C81.2773 5.72949 81.3001 5.85254 81.3457 5.96191C81.3958 6.06673 81.4824 6.16471 81.6055 6.25586C81.7285 6.34245 81.9017 6.42448 82.125 6.50195C82.3483 6.57943 82.6331 6.6569 82.9795 6.73438C83.5856 6.87109 84.0846 7.03516 84.4766 7.22656C84.8685 7.41797 85.1602 7.65267 85.3516 7.93066C85.543 8.20866 85.6387 8.5459 85.6387 8.94238C85.6387 9.26595 85.5703 9.56217 85.4336 9.83105C85.3014 10.0999 85.1077 10.3324 84.8525 10.5283C84.6019 10.7197 84.3011 10.8701 83.9502 10.9795C83.6038 11.0843 83.2142 11.1367 82.7812 11.1367C82.1296 11.1367 81.5781 11.0205 81.127 10.7881C80.6758 10.5557 80.334 10.2549 80.1016 9.88574C79.8691 9.5166 79.7529 9.12695 79.7529 8.7168H81.0244C81.0426 9.06315 81.1429 9.33887 81.3252 9.54395C81.5075 9.74447 81.7308 9.88802 81.9951 9.97461C82.2594 10.0566 82.5215 10.0977 82.7812 10.0977C83.1276 10.0977 83.417 10.0521 83.6494 9.96094C83.8864 9.86979 84.0664 9.74447 84.1895 9.58496C84.3125 9.42546 84.374 9.24316 84.374 9.03809ZM90.2598 10.0977C90.5605 10.0977 90.8385 10.0361 91.0938 9.91309C91.349 9.79004 91.5586 9.62142 91.7227 9.40723C91.8867 9.18848 91.9801 8.9401 92.0029 8.66211H93.2061C93.1833 9.09961 93.0352 9.50749 92.7617 9.88574C92.4928 10.2594 92.1396 10.5625 91.7021 10.7949C91.2646 11.0228 90.7839 11.1367 90.2598 11.1367C89.7038 11.1367 89.2184 11.0387 88.8037 10.8428C88.3936 10.6468 88.0518 10.3779 87.7783 10.0361C87.5094 9.69434 87.3066 9.30241 87.1699 8.86035C87.0378 8.41374 86.9717 7.94206 86.9717 7.44531V7.1582C86.9717 6.66146 87.0378 6.19206 87.1699 5.75C87.3066 5.30339 87.5094 4.90918 87.7783 4.56738C88.0518 4.22559 88.3936 3.95671 88.8037 3.76074C89.2184 3.56478 89.7038 3.4668 90.2598 3.4668C90.8385 3.4668 91.3444 3.58529 91.7773 3.82227C92.2103 4.05469 92.5498 4.3737 92.7959 4.7793C93.0465 5.18034 93.1833 5.63607 93.2061 6.14648H92.0029C91.9801 5.84115 91.8936 5.56543 91.7432 5.31934C91.5973 5.07324 91.3968 4.87728 91.1416 4.73145C90.891 4.58105 90.597 4.50586 90.2598 4.50586C89.8724 4.50586 89.5465 4.58333 89.2822 4.73828C89.0225 4.88867 88.8151 5.09375 88.6602 5.35352C88.5098 5.60872 88.4004 5.89355 88.332 6.20801C88.2682 6.5179 88.2363 6.83464 88.2363 7.1582V7.44531C88.2363 7.76888 88.2682 8.08789 88.332 8.40234C88.3958 8.7168 88.5029 9.00163 88.6533 9.25684C88.8083 9.51204 89.0156 9.71712 89.2754 9.87207C89.5397 10.0225 89.8678 10.0977 90.2598 10.0977ZM95.8926 0.5V11H94.6279V0.5H95.8926ZM95.5918 7.02148L95.0654 7.00098C95.07 6.49512 95.1452 6.02799 95.291 5.59961C95.4368 5.16667 95.6419 4.79069 95.9062 4.47168C96.1706 4.15267 96.485 3.90658 96.8496 3.7334C97.2188 3.55566 97.6266 3.4668 98.0732 3.4668C98.4378 3.4668 98.766 3.51693 99.0576 3.61719C99.3493 3.71289 99.5977 3.86784 99.8027 4.08203C100.012 4.29622 100.172 4.57422 100.281 4.91602C100.391 5.25326 100.445 5.66569 100.445 6.15332V11H99.1738V6.13965C99.1738 5.75228 99.1169 5.44238 99.0029 5.20996C98.889 4.97298 98.7227 4.80208 98.5039 4.69727C98.2852 4.58789 98.0163 4.5332 97.6973 4.5332C97.3828 4.5332 97.0957 4.59928 96.8359 4.73145C96.5807 4.86361 96.3597 5.0459 96.1729 5.27832C95.9906 5.51074 95.847 5.77734 95.7422 6.07812C95.6419 6.37435 95.5918 6.6888 95.5918 7.02148Z"
          fill="white" fill-opacity="0.9"/>
</svg>
