<svg width="117" height="12" viewBox="0 0 117 12" fill="none" xmlns="http://www.w3.org/2000/svg">
    <path d="M7.35547 5.66113V6.85059H0.533203V5.66113H7.35547ZM4.58008 2.75586V10.002H3.31543V2.75586H4.58008ZM15.4971 7.65039V8.68945H8.30566V7.94434L12.7627 1.04688H13.7949L12.6875 3.04297L9.74121 7.65039H15.4971ZM14.1094 1.04688V11H12.8447V1.04688H14.1094ZM17.9033 9.94043H18.0332C18.7624 9.94043 19.3548 9.83789 19.8105 9.63281C20.2663 9.42773 20.6172 9.15202 20.8633 8.80566C21.1094 8.45931 21.278 8.06966 21.3691 7.63672C21.4603 7.19922 21.5059 6.75033 21.5059 6.29004V4.76562C21.5059 4.31445 21.4535 3.91341 21.3486 3.5625C21.2484 3.21159 21.1071 2.91764 20.9248 2.68066C20.7471 2.44368 20.5443 2.26367 20.3164 2.14062C20.0885 2.01758 19.847 1.95605 19.5918 1.95605C19.3001 1.95605 19.0381 2.0153 18.8057 2.13379C18.5778 2.24772 18.3841 2.40951 18.2246 2.61914C18.0697 2.82878 17.9512 3.07487 17.8691 3.35742C17.7871 3.63997 17.7461 3.94759 17.7461 4.28027C17.7461 4.5765 17.7826 4.86361 17.8555 5.1416C17.9284 5.4196 18.04 5.67025 18.1904 5.89355C18.3408 6.11686 18.5277 6.2946 18.751 6.42676C18.9788 6.55436 19.2454 6.61816 19.5508 6.61816C19.8333 6.61816 20.0977 6.56348 20.3438 6.4541C20.5944 6.34017 20.8154 6.1875 21.0068 5.99609C21.2028 5.80013 21.3577 5.5791 21.4717 5.33301C21.5902 5.08691 21.6585 4.82943 21.6768 4.56055H22.2783C22.2783 4.9388 22.2031 5.3125 22.0527 5.68164C21.9069 6.04622 21.7018 6.37891 21.4375 6.67969C21.1732 6.98047 20.8633 7.22201 20.5078 7.4043C20.1523 7.58203 19.765 7.6709 19.3457 7.6709C18.8535 7.6709 18.4274 7.5752 18.0674 7.38379C17.7074 7.19238 17.4111 6.93717 17.1787 6.61816C16.9508 6.29915 16.7799 5.94368 16.666 5.55176C16.5566 5.15527 16.502 4.75423 16.502 4.34863C16.502 3.87467 16.568 3.43034 16.7002 3.01562C16.8324 2.60091 17.0283 2.23633 17.2881 1.92188C17.5479 1.60286 17.8691 1.35449 18.252 1.17676C18.6393 0.999023 19.0859 0.910156 19.5918 0.910156C20.1615 0.910156 20.6468 1.02409 21.0479 1.25195C21.4489 1.47982 21.7747 1.78516 22.0254 2.16797C22.2806 2.55078 22.4674 2.98145 22.5859 3.45996C22.7044 3.93848 22.7637 4.43066 22.7637 4.93652V5.39453C22.7637 5.90951 22.7295 6.43359 22.6611 6.9668C22.5973 7.49544 22.472 8.0013 22.2852 8.48438C22.1029 8.96745 21.8363 9.40039 21.4854 9.7832C21.1344 10.1615 20.6764 10.4622 20.1113 10.6855C19.5508 10.9043 18.8581 11.0137 18.0332 11.0137H17.9033V9.94043ZM32.1494 0.992188V11H30.8848V2.57129L28.335 3.50098V2.35938L31.9512 0.992188H32.1494ZM37.4678 6.2627L36.4561 6.00293L36.9551 1.04688H42.0615V2.21582H38.0283L37.7275 4.92285C37.9098 4.81803 38.14 4.72005 38.418 4.62891C38.7005 4.53776 39.0241 4.49219 39.3887 4.49219C39.849 4.49219 40.2614 4.57194 40.626 4.73145C40.9906 4.88639 41.3005 5.1097 41.5557 5.40137C41.8154 5.69303 42.0137 6.04395 42.1504 6.4541C42.2871 6.86426 42.3555 7.32227 42.3555 7.82812C42.3555 8.30664 42.2894 8.74642 42.1572 9.14746C42.0296 9.5485 41.8359 9.89941 41.5762 10.2002C41.3164 10.4964 40.9883 10.7266 40.5918 10.8906C40.1999 11.0547 39.7373 11.1367 39.2041 11.1367C38.8031 11.1367 38.4225 11.082 38.0625 10.9727C37.707 10.8587 37.388 10.6878 37.1055 10.46C36.8275 10.2275 36.5996 9.94043 36.4219 9.59863C36.2487 9.25228 36.1393 8.84668 36.0938 8.38184H37.2969C37.3516 8.75553 37.4609 9.06999 37.625 9.3252C37.7891 9.5804 38.0033 9.77409 38.2676 9.90625C38.5365 10.0339 38.8486 10.0977 39.2041 10.0977C39.5049 10.0977 39.7715 10.0452 40.0039 9.94043C40.2363 9.83561 40.4323 9.68522 40.5918 9.48926C40.7513 9.29329 40.8721 9.05632 40.9541 8.77832C41.0407 8.50033 41.084 8.18815 41.084 7.8418C41.084 7.52734 41.0407 7.23568 40.9541 6.9668C40.8675 6.69792 40.7376 6.46322 40.5645 6.2627C40.3958 6.06217 40.1885 5.90723 39.9424 5.79785C39.6963 5.68392 39.4137 5.62695 39.0947 5.62695C38.6709 5.62695 38.3496 5.68392 38.1309 5.79785C37.9167 5.91178 37.6956 6.06673 37.4678 6.2627ZM50.2646 9.96094V11H43.75V10.0908L47.0107 6.46094C47.4118 6.01432 47.7217 5.63607 47.9404 5.32617C48.1637 5.01172 48.3187 4.73145 48.4053 4.48535C48.4964 4.2347 48.542 3.97949 48.542 3.71973C48.542 3.3916 48.4736 3.09538 48.3369 2.83105C48.2048 2.56217 48.0088 2.34798 47.749 2.18848C47.4893 2.02897 47.1748 1.94922 46.8057 1.94922C46.3636 1.94922 45.9945 2.03581 45.6982 2.20898C45.4066 2.3776 45.1878 2.61458 45.042 2.91992C44.8962 3.22526 44.8232 3.57617 44.8232 3.97266H43.5586C43.5586 3.41211 43.6816 2.89941 43.9277 2.43457C44.1738 1.96973 44.5384 1.60059 45.0215 1.32715C45.5046 1.04915 46.0993 0.910156 46.8057 0.910156C47.4346 0.910156 47.9723 1.02181 48.4189 1.24512C48.8656 1.46387 49.2074 1.77376 49.4443 2.1748C49.6859 2.57129 49.8066 3.03613 49.8066 3.56934C49.8066 3.861 49.7565 4.15723 49.6562 4.45801C49.5605 4.75423 49.4261 5.05046 49.2529 5.34668C49.0843 5.6429 48.8861 5.93457 48.6582 6.22168C48.4349 6.50879 48.1956 6.79134 47.9404 7.06934L45.2744 9.96094H50.2646ZM57.8662 5.23047V6.74805C57.8662 7.5638 57.7933 8.25195 57.6475 8.8125C57.5016 9.37305 57.292 9.82422 57.0186 10.166C56.7451 10.5078 56.4147 10.7562 56.0273 10.9111C55.6445 11.0615 55.2116 11.1367 54.7285 11.1367C54.3457 11.1367 53.9925 11.0889 53.6689 10.9932C53.3454 10.8975 53.0537 10.7448 52.7939 10.5352C52.5387 10.321 52.32 10.043 52.1377 9.70117C51.9554 9.35938 51.8164 8.94466 51.7207 8.45703C51.625 7.9694 51.5771 7.39974 51.5771 6.74805V5.23047C51.5771 4.41471 51.6501 3.73112 51.7959 3.17969C51.9463 2.62826 52.1582 2.1862 52.4316 1.85352C52.7051 1.51628 53.0332 1.27474 53.416 1.12891C53.8034 0.983073 54.2363 0.910156 54.7148 0.910156C55.1022 0.910156 55.4577 0.958008 55.7812 1.05371C56.1094 1.14486 56.401 1.29297 56.6562 1.49805C56.9115 1.69857 57.1279 1.96745 57.3057 2.30469C57.488 2.63737 57.627 3.04525 57.7227 3.52832C57.8184 4.01139 57.8662 4.57878 57.8662 5.23047ZM56.5947 6.95312V5.01855C56.5947 4.57194 56.5674 4.18001 56.5127 3.84277C56.4626 3.50098 56.3874 3.20931 56.2871 2.96777C56.1868 2.72624 56.0592 2.53027 55.9043 2.37988C55.7539 2.22949 55.5785 2.12012 55.3779 2.05176C55.182 1.97884 54.9609 1.94238 54.7148 1.94238C54.4141 1.94238 54.1475 1.99935 53.915 2.11328C53.6826 2.22266 53.4867 2.39811 53.3271 2.63965C53.1722 2.88118 53.0537 3.19792 52.9717 3.58984C52.8896 3.98177 52.8486 4.45801 52.8486 5.01855V6.95312C52.8486 7.39974 52.8737 7.79395 52.9238 8.13574C52.9785 8.47754 53.0583 8.77376 53.1631 9.02441C53.2679 9.27051 53.3955 9.47331 53.5459 9.63281C53.6963 9.79232 53.8695 9.91081 54.0654 9.98828C54.266 10.0612 54.487 10.0977 54.7285 10.0977C55.0384 10.0977 55.3096 10.0384 55.542 9.91992C55.7744 9.80143 55.9681 9.61686 56.123 9.36621C56.2826 9.111 56.401 8.78516 56.4785 8.38867C56.556 7.98763 56.5947 7.50911 56.5947 6.95312ZM67.8193 1.0332H67.9287V2.10645H67.8193C67.1494 2.10645 66.5889 2.21582 66.1377 2.43457C65.6865 2.64876 65.3288 2.93815 65.0645 3.30273C64.8001 3.66276 64.6087 4.06836 64.4902 4.51953C64.3763 4.9707 64.3193 5.42871 64.3193 5.89355V7.35645C64.3193 7.7985 64.3717 8.19043 64.4766 8.53223C64.5814 8.86947 64.7249 9.1543 64.9072 9.38672C65.0895 9.61914 65.2946 9.7946 65.5225 9.91309C65.7549 10.0316 65.9964 10.0908 66.2471 10.0908C66.5387 10.0908 66.7985 10.0361 67.0264 9.92676C67.2542 9.81283 67.4456 9.6556 67.6006 9.45508C67.7601 9.25 67.8809 9.00846 67.9629 8.73047C68.0449 8.45247 68.0859 8.14714 68.0859 7.81445C68.0859 7.51823 68.0495 7.2334 67.9766 6.95996C67.9036 6.68197 67.792 6.43587 67.6416 6.22168C67.4912 6.00293 67.3021 5.83203 67.0742 5.70898C66.8509 5.58138 66.5843 5.51758 66.2744 5.51758C65.9235 5.51758 65.5954 5.60417 65.29 5.77734C64.9893 5.94596 64.7409 6.16927 64.5449 6.44727C64.3535 6.7207 64.2441 7.01921 64.2168 7.34277L63.5469 7.33594C63.6107 6.82552 63.7292 6.3903 63.9023 6.03027C64.0801 5.66569 64.2988 5.36947 64.5586 5.1416C64.8229 4.90918 65.1169 4.74056 65.4404 4.63574C65.7686 4.52637 66.1149 4.47168 66.4795 4.47168C66.9762 4.47168 67.4046 4.5651 67.7646 4.75195C68.1247 4.9388 68.4209 5.18945 68.6533 5.50391C68.8857 5.8138 69.0566 6.16471 69.166 6.55664C69.2799 6.94401 69.3369 7.34277 69.3369 7.75293C69.3369 8.22233 69.2708 8.66211 69.1387 9.07227C69.0065 9.48242 68.8083 9.84245 68.5439 10.1523C68.2842 10.4622 67.9629 10.7038 67.5801 10.877C67.1973 11.0501 66.7529 11.1367 66.2471 11.1367C65.7093 11.1367 65.2399 11.0273 64.8389 10.8086C64.4378 10.5853 64.1051 10.2891 63.8408 9.91992C63.5765 9.55078 63.3783 9.14062 63.2461 8.68945C63.1139 8.23828 63.0479 7.78027 63.0479 7.31543V6.7207C63.0479 6.01888 63.1185 5.33073 63.2598 4.65625C63.401 3.98177 63.6449 3.37109 63.9912 2.82422C64.3421 2.27734 64.8275 1.84212 65.4473 1.51855C66.0671 1.19499 66.8577 1.0332 67.8193 1.0332ZM77.2734 1.04688V1.75781L73.1514 11H71.8184L75.9336 2.08594H70.5469V1.04688H77.2734ZM80.5615 5.40137H81.4639C81.9059 5.40137 82.2705 5.32845 82.5576 5.18262C82.8493 5.03223 83.0658 4.82943 83.207 4.57422C83.3529 4.31445 83.4258 4.02279 83.4258 3.69922C83.4258 3.31641 83.362 2.99512 83.2344 2.73535C83.1068 2.47559 82.9154 2.27962 82.6602 2.14746C82.4049 2.0153 82.0814 1.94922 81.6895 1.94922C81.334 1.94922 81.0195 2.01986 80.7461 2.16113C80.4772 2.29785 80.2653 2.49382 80.1104 2.74902C79.96 3.00423 79.8848 3.30501 79.8848 3.65137H78.6201C78.6201 3.14551 78.7477 2.68522 79.0029 2.27051C79.2581 1.85579 79.6159 1.52539 80.0762 1.2793C80.541 1.0332 81.0788 0.910156 81.6895 0.910156C82.291 0.910156 82.8174 1.01725 83.2686 1.23145C83.7197 1.44108 84.0706 1.75553 84.3213 2.1748C84.5719 2.58952 84.6973 3.10677 84.6973 3.72656C84.6973 3.97721 84.638 4.24609 84.5195 4.5332C84.4056 4.81576 84.2256 5.08008 83.9795 5.32617C83.738 5.57227 83.4235 5.77507 83.0361 5.93457C82.6488 6.08952 82.1839 6.16699 81.6416 6.16699H80.5615V5.40137ZM80.5615 6.44043V5.68164H81.6416C82.2751 5.68164 82.7992 5.75684 83.2139 5.90723C83.6286 6.05762 83.9544 6.25814 84.1914 6.50879C84.4329 6.75944 84.6016 7.03516 84.6973 7.33594C84.7975 7.63216 84.8477 7.92839 84.8477 8.22461C84.8477 8.68945 84.7679 9.10189 84.6084 9.46191C84.4535 9.82194 84.2324 10.1273 83.9453 10.3779C83.6628 10.6286 83.3301 10.8177 82.9473 10.9453C82.5645 11.0729 82.1475 11.1367 81.6963 11.1367C81.2633 11.1367 80.8555 11.0752 80.4727 10.9521C80.0944 10.8291 79.7594 10.6514 79.4678 10.4189C79.1761 10.182 78.9482 9.89258 78.7842 9.55078C78.6201 9.20443 78.5381 8.81022 78.5381 8.36816H79.8027C79.8027 8.71452 79.8779 9.01758 80.0283 9.27734C80.1833 9.53711 80.402 9.73991 80.6846 9.88574C80.9717 10.027 81.3089 10.0977 81.6963 10.0977C82.0837 10.0977 82.4163 10.0316 82.6943 9.89941C82.9769 9.7627 83.1934 9.55762 83.3438 9.28418C83.4987 9.01074 83.5762 8.66667 83.5762 8.25195C83.5762 7.83724 83.4896 7.49772 83.3164 7.2334C83.1432 6.96452 82.8971 6.76628 82.5781 6.63867C82.2637 6.50651 81.8923 6.44043 81.4639 6.44043H80.5615ZM88.4365 5.40137H89.3389C89.7809 5.40137 90.1455 5.32845 90.4326 5.18262C90.7243 5.03223 90.9408 4.82943 91.082 4.57422C91.2279 4.31445 91.3008 4.02279 91.3008 3.69922C91.3008 3.31641 91.237 2.99512 91.1094 2.73535C90.9818 2.47559 90.7904 2.27962 90.5352 2.14746C90.2799 2.0153 89.9564 1.94922 89.5645 1.94922C89.209 1.94922 88.8945 2.01986 88.6211 2.16113C88.3522 2.29785 88.1403 2.49382 87.9854 2.74902C87.835 3.00423 87.7598 3.30501 87.7598 3.65137H86.4951C86.4951 3.14551 86.6227 2.68522 86.8779 2.27051C87.1331 1.85579 87.4909 1.52539 87.9512 1.2793C88.416 1.0332 88.9538 0.910156 89.5645 0.910156C90.166 0.910156 90.6924 1.01725 91.1436 1.23145C91.5947 1.44108 91.9456 1.75553 92.1963 2.1748C92.4469 2.58952 92.5723 3.10677 92.5723 3.72656C92.5723 3.97721 92.513 4.24609 92.3945 4.5332C92.2806 4.81576 92.1006 5.08008 91.8545 5.32617C91.613 5.57227 91.2985 5.77507 90.9111 5.93457C90.5238 6.08952 90.0589 6.16699 89.5166 6.16699H88.4365V5.40137ZM88.4365 6.44043V5.68164H89.5166C90.1501 5.68164 90.6742 5.75684 91.0889 5.90723C91.5036 6.05762 91.8294 6.25814 92.0664 6.50879C92.3079 6.75944 92.4766 7.03516 92.5723 7.33594C92.6725 7.63216 92.7227 7.92839 92.7227 8.22461C92.7227 8.68945 92.6429 9.10189 92.4834 9.46191C92.3285 9.82194 92.1074 10.1273 91.8203 10.3779C91.5378 10.6286 91.2051 10.8177 90.8223 10.9453C90.4395 11.0729 90.0225 11.1367 89.5713 11.1367C89.1383 11.1367 88.7305 11.0752 88.3477 10.9521C87.9694 10.8291 87.6344 10.6514 87.3428 10.4189C87.0511 10.182 86.8232 9.89258 86.6592 9.55078C86.4951 9.20443 86.4131 8.81022 86.4131 8.36816H87.6777C87.6777 8.71452 87.7529 9.01758 87.9033 9.27734C88.0583 9.53711 88.277 9.73991 88.5596 9.88574C88.8467 10.027 89.1839 10.0977 89.5713 10.0977C89.9587 10.0977 90.2913 10.0316 90.5693 9.89941C90.8519 9.7627 91.0684 9.55762 91.2188 9.28418C91.3737 9.01074 91.4512 8.66667 91.4512 8.25195C91.4512 7.83724 91.3646 7.49772 91.1914 7.2334C91.0182 6.96452 90.7721 6.76628 90.4531 6.63867C90.1387 6.50651 89.7673 6.44043 89.3389 6.44043H88.4365ZM100.714 5.23047V6.74805C100.714 7.5638 100.641 8.25195 100.495 8.8125C100.349 9.37305 100.14 9.82422 99.8662 10.166C99.5928 10.5078 99.2624 10.7562 98.875 10.9111C98.4922 11.0615 98.0592 11.1367 97.5762 11.1367C97.1934 11.1367 96.8402 11.0889 96.5166 10.9932C96.193 10.8975 95.9014 10.7448 95.6416 10.5352C95.3864 10.321 95.1676 10.043 94.9854 9.70117C94.8031 9.35938 94.6641 8.94466 94.5684 8.45703C94.4727 7.9694 94.4248 7.39974 94.4248 6.74805V5.23047C94.4248 4.41471 94.4977 3.73112 94.6436 3.17969C94.7939 2.62826 95.0059 2.1862 95.2793 1.85352C95.5527 1.51628 95.8809 1.27474 96.2637 1.12891C96.651 0.983073 97.084 0.910156 97.5625 0.910156C97.9499 0.910156 98.3053 0.958008 98.6289 1.05371C98.957 1.14486 99.2487 1.29297 99.5039 1.49805C99.7591 1.69857 99.9756 1.96745 100.153 2.30469C100.336 2.63737 100.475 3.04525 100.57 3.52832C100.666 4.01139 100.714 4.57878 100.714 5.23047ZM99.4424 6.95312V5.01855C99.4424 4.57194 99.415 4.18001 99.3604 3.84277C99.3102 3.50098 99.235 3.20931 99.1348 2.96777C99.0345 2.72624 98.9069 2.53027 98.752 2.37988C98.6016 2.22949 98.4261 2.12012 98.2256 2.05176C98.0296 1.97884 97.8086 1.94238 97.5625 1.94238C97.2617 1.94238 96.9951 1.99935 96.7627 2.11328C96.5303 2.22266 96.3343 2.39811 96.1748 2.63965C96.0199 2.88118 95.9014 3.19792 95.8193 3.58984C95.7373 3.98177 95.6963 4.45801 95.6963 5.01855V6.95312C95.6963 7.39974 95.7214 7.79395 95.7715 8.13574C95.8262 8.47754 95.9059 8.77376 96.0107 9.02441C96.1156 9.27051 96.2432 9.47331 96.3936 9.63281C96.5439 9.79232 96.7171 9.91081 96.9131 9.98828C97.1136 10.0612 97.3346 10.0977 97.5762 10.0977C97.8861 10.0977 98.1572 10.0384 98.3896 9.91992C98.6221 9.80143 98.8158 9.61686 98.9707 9.36621C99.1302 9.111 99.2487 8.78516 99.3262 8.38867C99.4036 7.98763 99.4424 7.50911 99.4424 6.95312ZM109.067 7.65039V8.68945H101.876V7.94434L106.333 1.04688H107.365L106.258 3.04297L103.312 7.65039H109.067ZM107.68 1.04688V11H106.415V1.04688H107.68ZM116.942 7.65039V8.68945H109.751V7.94434L114.208 1.04688H115.24L114.133 3.04297L111.187 7.65039H116.942ZM115.555 1.04688V11H114.29V1.04688H115.555Z"
          fill="white" fill-opacity="0.9"/>
</svg>
