<svg width="64" height="64" viewBox="0 0 64 64" fill="none" xmlns="http://www.w3.org/2000/svg">
    <g clip-path="url(#clip0_34_842)">
        <mask id="mask0_34_842" style="mask-type:luminance" maskUnits="userSpaceOnUse" x="0" y="0" width="64"
              height="64">
            <path d="M64 0H0V64H64V0Z" fill="white"/>
        </mask>
        <g mask="url(#mask0_34_842)">
            <path d="M32 64C49.6731 64 64 49.6731 64 32C64 14.3269 49.6731 0 32 0C14.3269 0 0 14.3269 0 32C0 49.6731 14.3269 64 32 64Z"
                  fill="#3870FF"/>
            <path d="M32 64C49.6731 64 64 49.6731 64 32C64 14.3269 49.6731 0 32 0C14.3269 0 0 14.3269 0 32C0 49.6731 14.3269 64 32 64Z"
                  fill="#3870FF"/>
            <path d="M32 61.6586C48.38 61.6586 61.6586 48.38 61.6586 32C61.6586 15.6201 48.38 2.34149 32 2.34149C15.6201 2.34149 2.34149 15.6201 2.34149 32C2.34149 48.38 15.6201 61.6586 32 61.6586Z"
                  fill="#3870FF"/>
            <path d="M32 61.6586C48.38 61.6586 61.6586 48.38 61.6586 32C61.6586 15.6201 48.38 2.34149 32 2.34149C15.6201 2.34149 2.34149 15.6201 2.34149 32C2.34149 48.38 15.6201 61.6586 32 61.6586Z"
                  fill="#151515"/>
            <path d="M27.9573 32.2012L25.25 31.5061L26.5854 18.2439H40.2502V21.3719H29.4573L28.6525 28.6158C29.1403 28.3354 29.7561 28.0732 30.5 27.8293C31.2561 27.5854 32.122 27.4634 33.0976 27.4634C34.3293 27.4634 35.4329 27.6768 36.4086 28.1036C37.3842 28.5183 38.2134 29.1159 38.8964 29.8963C39.5914 30.6768 40.1218 31.6158 40.4878 32.7134C40.8539 33.811 41.0365 35.0366 41.0365 36.3902C41.0365 37.6707 40.8597 38.8476 40.5062 39.9208C40.1647 40.9939 39.6465 41.9329 38.9512 42.7379C38.2561 43.5305 37.378 44.1463 36.3171 44.5854C35.2683 45.0244 34.0305 45.2441 32.6037 45.2441C31.5305 45.2441 30.5122 45.0974 29.5488 44.8047C28.5976 44.4999 27.7439 44.0425 26.9878 43.433C26.2439 42.8109 25.6342 42.0425 25.1586 41.1282C24.6951 40.2014 24.4024 39.1157 24.2805 37.872H27.5C27.6464 38.872 27.9391 39.7136 28.3781 40.3965C28.8171 41.0794 29.3903 41.5977 30.0976 41.9512C30.8171 42.2927 31.6525 42.4632 32.6037 42.4632C33.4086 42.4632 34.122 42.3231 34.7439 42.0425C35.3659 41.7623 35.8903 41.3596 36.3171 40.8355C36.7439 40.311 37.0671 39.6769 37.2866 38.9329C37.5183 38.189 37.6342 37.3537 37.6342 36.4268C37.6342 35.5854 37.5183 34.8049 37.2866 34.0854C37.0549 33.3658 36.7073 32.7378 36.2439 32.2012C35.7927 31.6646 35.2378 31.25 34.5793 30.9573C33.9208 30.6524 33.1647 30.5 32.311 30.5C31.1768 30.5 30.3171 30.6524 29.7317 30.9573C29.1586 31.2622 28.5671 31.6768 27.9573 32.2012Z"
                  fill="#3870FF"/>
        </g>
    </g>
    <defs>
        <clipPath id="clip0_34_842">
            <rect width="64" height="64" fill="white"/>
        </clipPath>
    </defs>
</svg>
