<svg width="157" height="32" viewBox="0 0 157 32" fill="none" xmlns="http://www.w3.org/2000/svg">
    <g clip-path="url(#clip0_39_935)">
        <mask id="mask0_39_935" style="mask-type:luminance" maskUnits="userSpaceOnUse" x="0" y="0" width="32"
              height="32">
            <path d="M32 0H0V32H32V0Z" fill="white"/>
        </mask>
        <g mask="url(#mask0_39_935)">
            <path d="M16 32C24.8366 32 32 24.8366 32 16C32 7.16344 24.8366 0 16 0C7.16344 0 0 7.16344 0 16C0 24.8366 7.16344 32 16 32Z"
                  fill="#3870FF"/>
            <path d="M16 32C24.8366 32 32 24.8366 32 16C32 7.16344 24.8366 0 16 0C7.16344 0 0 7.16344 0 16C0 24.8366 7.16344 32 16 32Z"
                  fill="#3870FF"/>
            <path d="M16 30.8293C24.19 30.8293 30.8293 24.19 30.8293 16C30.8293 7.81004 24.19 1.17075 16 1.17075C7.81001 1.17075 1.17072 7.81004 1.17072 16C1.17072 24.19 7.81001 30.8293 16 30.8293Z"
                  fill="#3870FF"/>
            <path d="M16 30.8293C24.19 30.8293 30.8293 24.19 30.8293 16C30.8293 7.81004 24.19 1.17075 16 1.17075C7.81001 1.17075 1.17072 7.81004 1.17072 16C1.17072 24.19 7.81001 30.8293 16 30.8293Z"
                  fill="#151515"/>
            <path d="M13.9787 16.1006L12.625 15.753L13.2927 9.12195H20.1251V10.686H14.7287L14.3262 14.3079C14.5701 14.1677 14.8781 14.0366 15.25 13.9146C15.6281 13.7927 16.061 13.7317 16.5488 13.7317C17.1646 13.7317 17.7165 13.8384 18.2043 14.0518C18.6921 14.2591 19.1067 14.5579 19.4482 14.9482C19.7957 15.3384 20.0609 15.8079 20.2439 16.3567C20.4269 16.9055 20.5182 17.5183 20.5182 18.1951C20.5182 18.8354 20.4299 19.4238 20.2531 19.9604C20.0823 20.497 19.8232 20.9664 19.4756 21.369C19.128 21.7653 18.689 22.0732 18.1585 22.2927C17.6342 22.5122 17.0152 22.622 16.3018 22.622C15.7653 22.622 15.2561 22.5487 14.7744 22.4023C14.2988 22.2499 13.872 22.0213 13.4939 21.7165C13.122 21.4055 12.8171 21.0213 12.5793 20.5641C12.3476 20.1007 12.2012 19.5578 12.1403 18.936H13.75C13.8232 19.436 13.9695 19.8568 14.189 20.1982C14.4086 20.5397 14.6951 20.7988 15.0488 20.9756C15.4086 21.1463 15.8262 21.2316 16.3018 21.2316C16.7043 21.2316 17.061 21.1616 17.3719 21.0213C17.6829 20.8812 17.9451 20.6798 18.1585 20.4178C18.3719 20.1555 18.5335 19.8384 18.6433 19.4665C18.7591 19.0945 18.8171 18.6768 18.8171 18.2134C18.8171 17.7927 18.7591 17.4024 18.6433 17.0427C18.5274 16.6829 18.3537 16.3689 18.122 16.1006C17.8964 15.8323 17.6189 15.625 17.2896 15.4787C16.9604 15.3262 16.5823 15.25 16.1555 15.25C15.5884 15.25 15.1585 15.3262 14.8659 15.4787C14.5793 15.6311 14.2835 15.8384 13.9787 16.1006Z"
                  fill="#3870FF"/>
        </g>
    </g>
    <path d="M48.7188 15.8496H45.1152L45.0957 14.3359H48.3672C48.9076 14.3359 49.3796 14.2448 49.7832 14.0625C50.1868 13.8802 50.4993 13.6198 50.7207 13.2812C50.9486 12.9362 51.0625 12.526 51.0625 12.0508C51.0625 11.5299 50.9616 11.1068 50.7598 10.7812C50.5645 10.4492 50.2617 10.2083 49.8516 10.0586C49.4479 9.90234 48.9336 9.82422 48.3086 9.82422H45.5352V22.5H43.6504V8.28125H48.3086C49.0378 8.28125 49.6888 8.35612 50.2617 8.50586C50.8346 8.64909 51.3197 8.87695 51.7168 9.18945C52.1204 9.49544 52.4264 9.88607 52.6348 10.3613C52.8431 10.8366 52.9473 11.4062 52.9473 12.0703C52.9473 12.6562 52.7975 13.1868 52.498 13.6621C52.1986 14.1309 51.7819 14.515 51.248 14.8145C50.7207 15.1139 50.1022 15.306 49.3926 15.3906L48.7188 15.8496ZM48.6309 22.5H44.373L45.4375 20.9668H48.6309C49.2298 20.9668 49.7376 20.8626 50.1543 20.6543C50.5775 20.446 50.8997 20.153 51.1211 19.7754C51.3424 19.3913 51.4531 18.9388 51.4531 18.418C51.4531 17.8906 51.3587 17.4349 51.1699 17.0508C50.9811 16.6667 50.6849 16.3704 50.2812 16.1621C49.8776 15.9538 49.3568 15.8496 48.7188 15.8496H46.0332L46.0527 14.3359H49.7246L50.125 14.8828C50.8086 14.9414 51.388 15.1367 51.8633 15.4688C52.3385 15.7943 52.6999 16.2109 52.9473 16.7188C53.2012 17.2266 53.3281 17.7865 53.3281 18.3984C53.3281 19.2839 53.1328 20.0326 52.7422 20.6445C52.3581 21.25 51.8145 21.7122 51.1113 22.0312C50.4082 22.3438 49.5814 22.5 48.6309 22.5ZM57.8008 11.9336V22.5H55.9844V11.9336H57.8008ZM55.8477 9.13086C55.8477 8.83789 55.9355 8.59049 56.1113 8.38867C56.2936 8.18685 56.5605 8.08594 56.9121 8.08594C57.2572 8.08594 57.5208 8.18685 57.7031 8.38867C57.8919 8.59049 57.9863 8.83789 57.9863 9.13086C57.9863 9.41081 57.8919 9.65169 57.7031 9.85352C57.5208 10.0488 57.2572 10.1465 56.9121 10.1465C56.5605 10.1465 56.2936 10.0488 56.1113 9.85352C55.9355 9.65169 55.8477 9.41081 55.8477 9.13086ZM67.5469 11.9336H69.1875V22.2754C69.1875 23.2064 68.9987 24.0007 68.6211 24.6582C68.2435 25.3158 67.7161 25.8138 67.0391 26.1523C66.3685 26.4974 65.5938 26.6699 64.7148 26.6699C64.3503 26.6699 63.9206 26.6113 63.4258 26.4941C62.9375 26.3835 62.4557 26.1914 61.9805 25.918C61.5117 25.651 61.1178 25.2897 60.7988 24.834L61.7461 23.7598C62.1888 24.2936 62.651 24.6647 63.1328 24.873C63.6211 25.0814 64.1029 25.1855 64.5781 25.1855C65.151 25.1855 65.6458 25.0781 66.0625 24.8633C66.4792 24.6484 66.8014 24.3294 67.0293 23.9062C67.2637 23.4896 67.3809 22.9753 67.3809 22.3633V14.2578L67.5469 11.9336ZM60.2715 17.334V17.1289C60.2715 16.3216 60.3659 15.5892 60.5547 14.9316C60.75 14.2676 61.0267 13.6979 61.3848 13.2227C61.7493 12.7474 62.1888 12.3828 62.7031 12.1289C63.2174 11.8685 63.7969 11.7383 64.4414 11.7383C65.1055 11.7383 65.6849 11.8555 66.1797 12.0898C66.681 12.3177 67.1042 12.653 67.4492 13.0957C67.8008 13.5319 68.0775 14.0592 68.2793 14.6777C68.4811 15.2962 68.6211 15.9961 68.6992 16.7773V17.6758C68.6276 18.4505 68.4876 19.1471 68.2793 19.7656C68.0775 20.3841 67.8008 20.9115 67.4492 21.3477C67.1042 21.7839 66.681 22.1191 66.1797 22.3535C65.6784 22.5814 65.0924 22.6953 64.4219 22.6953C63.7904 22.6953 63.2174 22.5618 62.7031 22.2949C62.1953 22.028 61.7591 21.6536 61.3945 21.1719C61.0299 20.6901 60.75 20.1237 60.5547 19.4727C60.3659 18.8151 60.2715 18.1022 60.2715 17.334ZM62.0781 17.1289V17.334C62.0781 17.8613 62.1302 18.3561 62.2344 18.8184C62.3451 19.2806 62.5111 19.6875 62.7324 20.0391C62.9603 20.3906 63.25 20.6673 63.6016 20.8691C63.9531 21.0645 64.373 21.1621 64.8613 21.1621C65.4603 21.1621 65.9551 21.0352 66.3457 20.7812C66.7363 20.5273 67.0456 20.1921 67.2734 19.7754C67.5078 19.3587 67.6901 18.9062 67.8203 18.418V16.0645C67.7487 15.7064 67.638 15.3613 67.4883 15.0293C67.3451 14.6908 67.1562 14.3913 66.9219 14.1309C66.694 13.8639 66.4108 13.6523 66.0723 13.4961C65.7337 13.3398 65.3366 13.2617 64.8809 13.2617C64.3861 13.2617 63.9596 13.3659 63.6016 13.5742C63.25 13.776 62.9603 14.056 62.7324 14.4141C62.5111 14.7656 62.3451 15.1758 62.2344 15.6445C62.1302 16.1068 62.0781 16.6016 62.0781 17.1289ZM87.1953 18.2031L90.0176 8.28125H91.3848L90.5938 12.1387L87.5566 22.5H86.1992L87.1953 18.2031ZM84.2754 8.28125L86.5215 18.0078L87.1953 22.5H85.8477L82.4004 8.28125H84.2754ZM95.0371 17.998L97.2344 8.28125H99.1191L95.6816 22.5H94.334L95.0371 17.998ZM91.5898 8.28125L94.334 18.2031L95.3301 22.5H93.9727L91.043 12.1387L90.2422 8.28125H91.5898ZM100.145 17.334V17.1094C100.145 16.3477 100.255 15.6413 100.477 14.9902C100.698 14.3327 101.017 13.763 101.434 13.2812C101.85 12.793 102.355 12.4154 102.947 12.1484C103.54 11.875 104.204 11.7383 104.939 11.7383C105.682 11.7383 106.349 11.875 106.941 12.1484C107.54 12.4154 108.048 12.793 108.465 13.2812C108.888 13.763 109.21 14.3327 109.432 14.9902C109.653 15.6413 109.764 16.3477 109.764 17.1094V17.334C109.764 18.0957 109.653 18.8021 109.432 19.4531C109.21 20.1042 108.888 20.6738 108.465 21.1621C108.048 21.6439 107.544 22.0215 106.951 22.2949C106.365 22.5618 105.701 22.6953 104.959 22.6953C104.217 22.6953 103.549 22.5618 102.957 22.2949C102.365 22.0215 101.857 21.6439 101.434 21.1621C101.017 20.6738 100.698 20.1042 100.477 19.4531C100.255 18.8021 100.145 18.0957 100.145 17.334ZM101.951 17.1094V17.334C101.951 17.8613 102.013 18.3594 102.137 18.8281C102.26 19.2904 102.446 19.7005 102.693 20.0586C102.947 20.4167 103.263 20.6999 103.641 20.9082C104.018 21.11 104.458 21.2109 104.959 21.2109C105.454 21.2109 105.887 21.11 106.258 20.9082C106.635 20.6999 106.948 20.4167 107.195 20.0586C107.443 19.7005 107.628 19.2904 107.752 18.8281C107.882 18.3594 107.947 17.8613 107.947 17.334V17.1094C107.947 16.5885 107.882 16.097 107.752 15.6348C107.628 15.166 107.439 14.7526 107.186 14.3945C106.938 14.0299 106.626 13.7435 106.248 13.5352C105.877 13.3268 105.441 13.2227 104.939 13.2227C104.445 13.2227 104.008 13.3268 103.631 13.5352C103.26 13.7435 102.947 14.0299 102.693 14.3945C102.446 14.7526 102.26 15.166 102.137 15.6348C102.013 16.097 101.951 16.5885 101.951 17.1094ZM113.836 13.5938V22.5H112.029V11.9336H113.787L113.836 13.5938ZM117.137 11.875L117.127 13.5547C116.977 13.5221 116.834 13.5026 116.697 13.4961C116.567 13.4831 116.417 13.4766 116.248 13.4766C115.831 13.4766 115.464 13.5417 115.145 13.6719C114.826 13.8021 114.555 13.9844 114.334 14.2188C114.113 14.4531 113.937 14.7331 113.807 15.0586C113.683 15.3776 113.602 15.7292 113.562 16.1133L113.055 16.4062C113.055 15.7682 113.117 15.1693 113.24 14.6094C113.37 14.0495 113.569 13.5547 113.836 13.125C114.103 12.6888 114.441 12.3503 114.852 12.1094C115.268 11.862 115.763 11.7383 116.336 11.7383C116.466 11.7383 116.616 11.7546 116.785 11.7871C116.954 11.8132 117.072 11.8424 117.137 11.875ZM120.623 7.5V22.5H118.807V7.5H120.623ZM127.078 11.9336L122.469 16.8652L119.891 19.541L119.744 17.6172L121.59 15.4102L124.871 11.9336H127.078ZM125.428 22.5L121.658 17.4609L122.596 15.8496L127.557 22.5H125.428ZM128.465 17.334V17.1094C128.465 16.3477 128.576 15.6413 128.797 14.9902C129.018 14.3327 129.337 13.763 129.754 13.2812C130.171 12.793 130.675 12.4154 131.268 12.1484C131.86 11.875 132.524 11.7383 133.26 11.7383C134.002 11.7383 134.669 11.875 135.262 12.1484C135.861 12.4154 136.368 12.793 136.785 13.2812C137.208 13.763 137.531 14.3327 137.752 14.9902C137.973 15.6413 138.084 16.3477 138.084 17.1094V17.334C138.084 18.0957 137.973 18.8021 137.752 19.4531C137.531 20.1042 137.208 20.6738 136.785 21.1621C136.368 21.6439 135.864 22.0215 135.271 22.2949C134.686 22.5618 134.021 22.6953 133.279 22.6953C132.537 22.6953 131.87 22.5618 131.277 22.2949C130.685 22.0215 130.177 21.6439 129.754 21.1621C129.337 20.6738 129.018 20.1042 128.797 19.4531C128.576 18.8021 128.465 18.0957 128.465 17.334ZM130.271 17.1094V17.334C130.271 17.8613 130.333 18.3594 130.457 18.8281C130.581 19.2904 130.766 19.7005 131.014 20.0586C131.268 20.4167 131.583 20.6999 131.961 20.9082C132.339 21.11 132.778 21.2109 133.279 21.2109C133.774 21.2109 134.207 21.11 134.578 20.9082C134.956 20.6999 135.268 20.4167 135.516 20.0586C135.763 19.7005 135.949 19.2904 136.072 18.8281C136.202 18.3594 136.268 17.8613 136.268 17.334V17.1094C136.268 16.5885 136.202 16.097 136.072 15.6348C135.949 15.166 135.76 14.7526 135.506 14.3945C135.258 14.0299 134.946 13.7435 134.568 13.5352C134.197 13.3268 133.761 13.2227 133.26 13.2227C132.765 13.2227 132.329 13.3268 131.951 13.5352C131.58 13.7435 131.268 14.0299 131.014 14.3945C130.766 14.7526 130.581 15.166 130.457 15.6348C130.333 16.097 130.271 16.5885 130.271 17.1094ZM146.814 20.0586V11.9336H148.631V22.5H146.902L146.814 20.0586ZM147.156 17.832L147.908 17.8125C147.908 18.5156 147.833 19.1667 147.684 19.7656C147.54 20.3581 147.306 20.8724 146.98 21.3086C146.655 21.7448 146.229 22.0866 145.701 22.334C145.174 22.5749 144.533 22.6953 143.777 22.6953C143.263 22.6953 142.791 22.6204 142.361 22.4707C141.938 22.321 141.574 22.0898 141.268 21.7773C140.962 21.4648 140.724 21.0579 140.555 20.5566C140.392 20.0553 140.311 19.4531 140.311 18.75V11.9336H142.117V18.7695C142.117 19.2448 142.169 19.6387 142.273 19.9512C142.384 20.2572 142.531 20.5013 142.713 20.6836C142.902 20.8594 143.11 20.9831 143.338 21.0547C143.572 21.1263 143.813 21.1621 144.061 21.1621C144.829 21.1621 145.438 21.0156 145.887 20.7227C146.336 20.4232 146.658 20.0228 146.854 19.5215C147.055 19.0137 147.156 18.4505 147.156 17.832ZM155.809 11.9336V13.3203H150.096V11.9336H155.809ZM152.029 9.36523H153.836V19.8828C153.836 20.2409 153.891 20.5111 154.002 20.6934C154.113 20.8757 154.256 20.9961 154.432 21.0547C154.607 21.1133 154.796 21.1426 154.998 21.1426C155.148 21.1426 155.304 21.1296 155.467 21.1035C155.636 21.071 155.763 21.0449 155.848 21.0254L155.857 22.5C155.714 22.5456 155.525 22.5879 155.291 22.627C155.063 22.6725 154.786 22.6953 154.461 22.6953C154.018 22.6953 153.611 22.6074 153.24 22.4316C152.869 22.2559 152.573 21.9629 152.352 21.5527C152.137 21.1361 152.029 20.5762 152.029 19.873V9.36523Z"
          fill="white"/>
    <path d="M74.0215 15.7324L72.5762 15.3613L73.2891 8.28125H80.584V9.95117H74.8223L74.3926 13.8184C74.653 13.6686 74.9818 13.5286 75.3789 13.3984C75.7826 13.2682 76.2448 13.2031 76.7656 13.2031C77.4232 13.2031 78.0124 13.3171 78.5332 13.5449C79.054 13.7663 79.4967 14.0853 79.8613 14.502C80.2324 14.9186 80.5156 15.4199 80.7109 16.0059C80.9062 16.5918 81.0039 17.2461 81.0039 17.9688C81.0039 18.6523 80.9095 19.2806 80.7207 19.8535C80.5384 20.4264 80.2617 20.9277 79.8906 21.3574C79.5195 21.7806 79.0508 22.1094 78.4844 22.3438C77.9245 22.5781 77.2637 22.6953 76.502 22.6953C75.929 22.6953 75.3854 22.6172 74.8711 22.4609C74.3633 22.2982 73.9076 22.054 73.5039 21.7285C73.1068 21.3965 72.7812 20.9863 72.5273 20.498C72.2799 20.0033 72.1237 19.4238 72.0586 18.7598H73.7773C73.8555 19.2936 74.0117 19.7428 74.2461 20.1074C74.4805 20.472 74.7865 20.7487 75.1641 20.9375C75.5482 21.1198 75.9941 21.2109 76.502 21.2109C76.9316 21.2109 77.3125 21.1361 77.6445 20.9863C77.9766 20.8366 78.2565 20.6217 78.4844 20.3418C78.7122 20.0618 78.8848 19.7233 79.002 19.3262C79.1257 18.929 79.1875 18.4831 79.1875 17.9883C79.1875 17.5391 79.1257 17.1224 79.002 16.7383C78.8783 16.3542 78.6927 16.0189 78.4453 15.7324C78.2044 15.446 77.9082 15.2246 77.5566 15.0684C77.2051 14.9056 76.8014 14.8242 76.3457 14.8242C75.7402 14.8242 75.2812 14.9056 74.9688 15.0684C74.6628 15.2311 74.347 15.4525 74.0215 15.7324Z"
          fill="#3870FF"/>
    <defs>
        <clipPath id="clip0_39_935">
            <rect width="32" height="32" fill="white"/>
        </clipPath>
    </defs>
</svg>
